SplineFontDB: 3.0
FontName: Muli-Medium-Italic
FullName: Muli Medium Italic
FamilyName: Muli
Weight: Medium
Copyright: 2013 (c) vernon adams
Version: 1
ItalicAngle: -5
UnderlinePosition: 0
UnderlineWidth: 0
Ascent: 1638
Descent: 410
UFOAscent: 1694
UFODescent: -525
LayerCount: 2
Layer: 0 0 "Back"  1
Layer: 1 0 "Fore"  0
FSType: 0
OS2Version: 0
OS2_WeightWidthSlopeOnly: 0
OS2_UseTypoMetrics: 1
CreationTime: 1367940493
ModificationTime: 1367972817
PfmFamily: 33
TTFWeight: 500
TTFWidth: 5
LineGap: 0
VLineGap: 0
OS2TypoAscent: 1978
OS2TypoAOffset: 0
OS2TypoDescent: -679
OS2TypoDOffset: 0
OS2TypoLinegap: 0
OS2WinAscent: 1978
OS2WinAOffset: 0
OS2WinDescent: 679
OS2WinDOffset: 0
HheadAscent: 1978
HheadAOffset: 0
HheadDescent: -679
HheadDOffset: 0
OS2Vendor: 'newt'
Lookup: 260 0 0 "'mark' Mark Positioning lookup 1"  {"'mark' Mark Positioning lookup 1-1"  } ['mark' ('DFLT' <'dflt' > 'grek' <'dflt' > 'latn' <'dflt' > ) ]
Lookup: 258 0 0 "'kern' Horizontal Kerning lookup 0"  {"'kern' Horizontal Kerning lookup 0 subtable" [307,0,0] } ['kern' ('DFLT' <'dflt' > 'latn' <'dflt' > ) ]
MarkAttachClasses: 1
DEI: 91125
KernClass2: 11 20 "'kern' Horizontal Kerning lookup 0 subtable" 
 89 A Aacute Abreve Acircumflex Adieresis Agrave Amacron Aogonek Aring Atilde uni0200 uni0202
 9 F uni1E1E
 14 K Kcommaaccent
 28 L Lacute Lcaron Lcommaaccent
 9 P uni1E56
 37 T Tcaron Tcommaaccent uni021A uni1E6A
 1 V
 37 W Wacute Wcircumflex Wdieresis Wgrave
 37 Y Yacute Ycircumflex Ydieresis Ygrave
 9 f uni1E1F
 89 A Aacute Abreve Acircumflex Adieresis Agrave Amacron Aogonek Aring Atilde uni0200 uni0202
 47 C Cacute Ccaron Ccedilla Ccircumflex Cdotaccent
 52 G Gbreve Gcircumflex Gcommaaccent Gdotaccent uni01F4
 89 O Oacute Obreve Ocircumflex Odieresis Ograve Ohungarumlaut Omacron Otilde uni020C uni020E
 1 Q
 37 T Tcaron Tcommaaccent uni021A uni1E6A
 1 V
 37 W Wacute Wcircumflex Wdieresis Wgrave
 37 Y Yacute Ycircumflex Ydieresis Ygrave

StartChar: A
Encoding: 33 65 0
Width: 1405
VWidth: 0
Flags: W
HStem: 0 21G<24 270.048 1149.76 1387> 378 183<509 983> 1436 20G<703.536 938.25>
AnchorPoint: "ogonek" 1261 4 basechar 0
LayerCount: 2
Fore
SplineSet
509 561 m 1
 983 561 l 1
 868 1002 l 1
 804 1232 l 1
 703 1002 l 1
 509 561 l 1
24 0 m 1
 713 1456 l 1
 932 1456 l 1
 1387 0 l 1
 1156 0 l 1
 1038 378 l 1
 432 378 l 1
 261 0 l 1
 24 0 l 1
EndSplineSet
EndChar

StartChar: AE
Encoding: 132 198 1
Width: 2074
VWidth: 0
Flags: HW
HStem: 0 180<1318 1938> 379 173<623 1087> 655 181<1305 1917> 1276 180<1284 1973>
VStem: 1085 199<836 1253> 1087 218<552 655>
LayerCount: 2
Fore
SplineSet
37 0 m 1xf4
 967 1456 l 1
 1978 1456 l 1
 1973 1276 l 1
 1284 1276 l 1xf8
 1296 836 l 1
 1922 836 l 1
 1917 655 l 1
 1305 655 l 1
 1318 180 l 1
 1943 180 l 1
 1938 0 l 1
 1101 0 l 1
 1094 379 l 1
 526 379 l 1
 288 0 l 1
 37 0 l 1xf4
623 552 m 1
 1087 552 l 1xf4
 1085 1253 l 1
 1062 1253 l 1
 623 552 l 1
EndSplineSet
EndChar

StartChar: B
Encoding: 34 66 11
Width: 1339
VWidth: 0
Flags: HW
HStem: 0 172<416 891.733> 681 172<475 917.384> 1284 172<512 952.854>
VStem: 1046 224<307.113 599.891 976.182 1196.67>
LayerCount: 2
Fore
SplineSet
1260 1138 m 0
 1260 965 1167 845 1002 786 c 1
 1175 748 1270 629 1270 464 c 0
 1270 236 1082 0 721 0 c 2
 189 0 l 1
 317 1456 l 1
 669 1456 l 2
 917 1456 1260 1440 1260 1138 c 0
680 172 m 2
 912 172 1046 279 1046 466 c 0
 1046 630 934 681 693 681 c 2
 461 681 l 1
 416 172 l 1
 680 172 l 2
689 853 m 2
 858 853 1035 897 1035 1095 c 0
 1035 1247 902 1284 705 1284 c 2
 512 1284 l 1
 475 853 l 1
 689 853 l 2
EndSplineSet
EndChar

StartChar: C
Encoding: 35 67 12
Width: 1402
VWidth: 0
Flags: HW
HStem: -23 180<644.599 1084.05> 1302 181<731.052 1156.59>
VStem: 166 222<418.838 910.605>
AnchorPoint: "bot" 832 5 basechar 0
LayerCount: 2
Fore
SplineSet
841 -23 m 0
 388 -23 166 279 166 645 c 0
 166 1088 468 1483 933 1483 c 4
 1122 1483 1277 1432 1398 1317 c 1
 1304 1174 l 1
 1196 1256 1071 1302 941 1302 c 0
 595 1302 388 998 388 655 c 0
 388 388 528 157 854 157 c 0
 994 157 1150 211 1275 308 c 1
 1330 134 l 1
 1197 36 1033 -23 841 -23 c 0
EndSplineSet
EndChar

StartChar: D
Encoding: 36 68 18
Width: 1535
VWidth: 0
Flags: HW
HStem: 0 172<416 902.91> 1284 172<514 979.203>
VStem: 1275 223<537.3 1027.86>
LayerCount: 2
Fore
SplineSet
647 172 m 2
 1061 172 1275 415 1275 808 c 0
 1275 1132 1084 1284 666 1284 c 2
 514 1284 l 1
 416 172 l 1
 647 172 l 2
189 0 m 1
 317 1456 l 1
 659 1456 l 2
 1180 1456 1498 1265 1498 817 c 0
 1498 291 1168 0 617 0 c 2
 189 0 l 1
EndSplineSet
EndChar

StartChar: E
Encoding: 37 69 21
Width: 1197
VWidth: 0
Flags: HW
HStem: 0 172<416 1104> 676 172<474 1096> 1284 172<511 1187>
AnchorPoint: "ogonek" 881 4 basechar 0
LayerCount: 2
Fore
SplineSet
188 0 m 1
 316 1456 l 1
 1202 1456 l 1
 1187 1284 l 1
 511 1284 l 1
 474 848 l 1
 1112 848 l 1
 1096 676 l 1
 459 676 l 1
 416 172 l 1
 1121 172 l 1
 1104 0 l 1
 188 0 l 1
EndSplineSet
EndChar

StartChar: Eng
Encoding: 264 330 30
Width: 1585
VWidth: 0
Flags: HW
HStem: -433 161<584.197 1060.77> 0 21G<187 389.736> 1436 20G<312.255 555.62 1314.25 1519>
VStem: 1316 203<1292.14 1456>
LayerCount: 2
Fore
SplineSet
521 -387 m 1
 562 -222 l 1
 676 -254 778 -272 866 -272 c 0
 1049 -272 1162 -208 1186 -13 c 0
 1187 -9 1192 64 1193 68 c 1
 576 1024 l 1
 490 1175 l 1
 388 0 l 1
 187 0 l 1
 314 1456 l 1
 543 1456 l 1
 1133 521 l 1
 1221 370 l 1
 1316 1456 l 1
 1519 1456 l 1
 1398 73 l 2
 1369 -267 1198 -433 858 -433 c 0
 760 -433 648 -418 521 -387 c 1
EndSplineSet
EndChar

StartChar: Eth
Encoding: 142 208 32
Width: 1505
VWidth: 0
Flags: HW
HStem: 0 172<416 902.91> 668 148<105 714> 1284 172<514 979.203>
VStem: 1275 223<537.3 1027.86>
LayerCount: 2
Fore
SplineSet
105 816 m 1
 727 816 l 1
 714 668 l 1
 92 668 l 1
 105 816 l 1
EndSplineSet
Refer: 18 68 N 1 0 0 1 0 0 2
EndChar

StartChar: Euro
Encoding: 416 8364 33
Width: 1190
VWidth: 0
Flags: HW
HStem: -21 146<603.951 967.733> 516 138<156 258 438 980> 784 138<178 268 476 1036> 1303 145<719.018 1056.27>
VStem: 262 178<309.442 516 654 784> 299 177<922 1032.74>
LayerCount: 2
Fore
SplineSet
750 -21 m 0xf8
 423 -21 272 196 259 516 c 1
 124 516 l 1
 156 654 l 1
 258 654 l 1
 259 674 260 696 262 724 c 0xf8
 263 741 265 761 268 784 c 1
 144 784 l 1
 178 922 l 1
 299 922 l 1
 382 1229 594 1448 910 1448 c 0
 1042 1448 1147 1410 1223 1330 c 1
 1170 1141 l 1
 1107 1248 1008 1303 891 1303 c 0
 676 1303 540 1131 476 922 c 1xf4
 1068 922 l 1
 1036 784 l 1
 446 784 l 1
 444 771 441 755 440 739 c 0
 436 698 436 654 436 654 c 1
 1011 654 l 1
 980 516 l 1
 438 516 l 1
 449 285 545 125 779 125 c 0
 879 125 989 165 1107 253 c 1
 1090 75 l 1
 985 8 871 -21 750 -21 c 0xf8
EndSplineSet
EndChar

StartChar: F
Encoding: 38 70 34
Width: 1126
VWidth: 0
Flags: HW
HStem: 0 21G<189 401.721> 674 172<473 1062> 1284 172<512 1150>
LayerCount: 2
Fore
SplineSet
189 0 m 1
 317 1456 l 1
 1165 1456 l 1
 1150 1284 l 1
 512 1284 l 1
 473 846 l 1
 1077 846 l 1
 1062 674 l 1
 458 674 l 1
 400 0 l 1
 189 0 l 1
EndSplineSet
EndChar

StartChar: G
Encoding: 39 71 35
Width: 1522
VWidth: 0
Flags: HW
HStem: -23 180<640.833 1163.25> 602 172<860 1214> 1302 181<755.058 1231.16>
VStem: 163 222<410.028 891.551>
LayerCount: 2
Fore
SplineSet
843 -23 m 0
 393 -23 163 227 163 612 c 0
 163 1098 492 1483 995 1483 c 0
 1305 1483 1459 1338 1459 1338 c 1
 1368 1182 l 1
 1368 1182 1240 1302 983 1302 c 0
 605 1302 385 989 385 638 c 0
 385 351 541 157 871 157 c 0
 969 157 1089 175 1180 207 c 1
 1214 602 l 1
 845 602 l 1
 860 774 l 1
 1429 774 l 1
 1372 87 l 1
 1197 6 1012 -23 843 -23 c 0
EndSplineSet
EndChar

StartChar: H
Encoding: 40 72 40
Width: 1537
VWidth: 0
Flags: W
HStem: 0 21G<189 403.766 1140 1349.76> 657 173<474 1196> 1436 20G<315.242 527 1264.24 1476>
LayerCount: 2
Fore
SplineSet
189 0 m 1
 317 1456 l 1
 527 1456 l 1
 474 830 l 1
 1211 830 l 1
 1266 1456 l 1
 1476 1456 l 1
 1348 0 l 1
 1140 0 l 1
 1196 657 l 1
 460 657 l 1
 402 0 l 1
 189 0 l 1
EndSplineSet
EndChar

StartChar: Hbar
Encoding: 228 294 41
Width: 1538
VWidth: 0
Flags: HW
HStem: 0 21<189 403.766 1140 1349.76> 657 173<474 1196> 1114 154<187 1529> 1436 20<315.242 527 1264.24 1476>
LayerCount: 2
Fore
SplineSet
174 1114 m 1
 187 1268 l 1
 1543 1268 l 1
 1529 1114 l 1
 174 1114 l 1
EndSplineSet
Refer: 40 72 N 1 0 0 1 0 0 2
EndChar

StartChar: I
Encoding: 41 73 43
Width: 581
VWidth: 0
Flags: W
HStem: 0 21G<182 393.758> 1436 20G<308.242 520>
VStem: 182 338
AnchorPoint: "ogonek" 291 0 basechar 0
LayerCount: 2
Fore
SplineSet
182 0 m 1
 310 1456 l 1
 520 1456 l 1
 392 0 l 1
 182 0 l 1
EndSplineSet
EndChar

StartChar: J
Encoding: 42 74 54
Width: 750
VWidth: 0
Flags: HW
HStem: -350 179<-54.156 284.121> 1436 20G<475.247 690>
LayerCount: 2
Fore
SplineSet
173 -350 m 0
 73 -350 -26 -323 -92 -298 c 1
 -45 -133 l 1
 7 -150 81 -171 157 -171 c 0
 301 -171 343 -76 358 98 c 2
 477 1456 l 1
 690 1456 l 1
 571 99 l 2
 545 -198 406 -350 173 -350 c 0
EndSplineSet
EndChar

StartChar: K
Encoding: 43 75 56
Width: 1299
VWidth: 0
Flags: HW
HStem: 0 21G<189 402.73 1019.11 1308> 1436 20G<315.242 527 1107.82 1391>
LayerCount: 2
Fore
SplineSet
189 0 m 1
 317 1456 l 1
 527 1456 l 1
 469 803 l 1
 1128 1456 l 1
 1391 1456 l 1
 676 749 l 1
 1308 0 l 1
 1036 0 l 1
 460 682 l 1
 401 0 l 1
 189 0 l 1
EndSplineSet
EndChar

StartChar: L
Encoding: 44 76 58
Width: 1114
VWidth: 0
Flags: W
HStem: 0 172<412 1073> 1436 20G<313.242 525>
LayerCount: 2
Fore
SplineSet
187 0 m 1
 315 1456 l 1
 525 1456 l 1
 412 172 l 1
 1088 172 l 1
 1073 0 l 1
 187 0 l 1
EndSplineSet
EndChar

StartChar: Lslash
Encoding: 255 321 63
Width: 1141
VWidth: 0
Flags: HW
HStem: 0 172<412 1073> 1436 20<313.242 525>
LayerCount: 2
Fore
SplineSet
737 909 m 1
 80 484 l 1
 96 663 l 1
 752 1087 l 1
 737 909 l 1
EndSplineSet
Refer: 58 76 N 1 0 0 1 0 0 2
EndChar

StartChar: M
Encoding: 45 77 64
Width: 1929
VWidth: 0
Flags: W
HStem: 0 21G<189 395.742 883.877 1053.71 1540 1741.76> 1436 20G<315.242 577.234 1612.13 1868>
LayerCount: 2
Fore
SplineSet
189 0 m 1
 317 1456 l 1
 570 1456 l 1
 914 505 l 1
 992 289 l 1
 1109 510 l 1
 1623 1456 l 1
 1868 1456 l 1
 1740 0 l 1
 1540 0 l 1
 1639 1112 l 1
 1542 932 l 1
 1043 0 l 1
 891 0 l 1
 553 949 l 1
 492 1125 l 1
 394 0 l 1
 189 0 l 1
EndSplineSet
EndChar

StartChar: N
Encoding: 46 78 65
Width: 1582
VWidth: 0
Flags: HW
HStem: 0 21G<189 391.742 1154.17 1395.76> 1436 20G<315.242 555.732 1317.24 1522>
LayerCount: 2
Fore
SplineSet
189 0 m 1
 317 1456 l 1
 544 1456 l 1
 1130 457 l 1
 1218 306 l 1
 1319 1456 l 1
 1522 1456 l 1
 1394 0 l 1
 1166 0 l 1
 577 996 l 1
 490 1148 l 1
 390 0 l 1
 189 0 l 1
EndSplineSet
EndChar

StartChar: O
Encoding: 47 79 70
Width: 1638
VWidth: 0
Flags: W
HStem: -23 180<624.04 1050.62> 1303 180<727.345 1137.54>
VStem: 166 228<407.904 914.408> 1372 229<530.743 1050.44>
AnchorPoint: "ogonek" 838 5 basechar 0
LayerCount: 2
Fore
SplineSet
936 1303 m 0
 589 1303 394 999 394 646 c 0
 394 367 533 157 832 157 c 0
 1181 157 1372 440 1372 815 c 0
 1372 1096 1234 1303 936 1303 c 0
1601 821 m 0
 1601 320 1298 -23 820 -23 c 0
 402 -23 166 230 166 633 c 0
 166 1131 474 1483 957 1483 c 0
 1364 1483 1601 1225 1601 821 c 0
EndSplineSet
EndChar

StartChar: OE
Encoding: 272 338 71
Width: 2102
VWidth: 0
Flags: HW
HStem: -23 171<561.776 942.699> 0 180<1281 1902> 655 181<1337 1892> 1276 180<1376 1984> 1302 181<664.757 1068.32>
LayerCount: 2
Fore
SplineSet
703 -23 m 0xa0
 315 -23 71 287 110 730 c 0
 146 1148 452 1483 842 1483 c 0xa8
 959 1483 1074 1452 1176 1393 c 1
 1182 1456 l 1
 2000 1456 l 1
 1984 1276 l 1
 1376 1276 l 1
 1337 836 l 1
 1908 836 l 1
 1892 655 l 1
 1323 655 l 1
 1281 180 l 1
 1918 180 l 1
 1902 0 l 1
 1054 0 l 1x70
 1061 77 l 1
 944 10 822 -23 703 -23 c 0xa0
745 148 m 0
 860 148 973 184 1076 250 c 1
 1160 1209 l 1
 1069 1270 961 1302 845 1302 c 0
 568 1302 363 1032 336 725 c 0
 308 404 465 148 745 148 c 0
EndSplineSet
EndChar

StartChar: uni03A9
Encoding: 374 937 79
Width: 1603
VWidth: 0
Flags: HW
HStem: 0 170<105 407 1214 1468> 1270 173<716.337 1115.87>
LayerCount: 2
Fore
SplineSet
105 0 m 1
 90 170 l 1
 407 169 l 1
 250 310 158 514 180 772 c 0
 216 1181 536 1443 936 1443 c 0
 1351 1443 1586 1149 1552 764 c 0
 1529 501 1380 302 1214 169 c 1
 1260 169 1455 170 1498 170 c 1
 1468 0 l 1
 928 0 l 1
 936 144 l 1
 1146 278 1310 495 1332 750 c 0
 1356 1028 1223 1270 918 1270 c 0
 639 1270 426 1058 399 753 c 0
 377 498 493 275 682 144 c 1
 674 0 l 1
 105 0 l 1
EndSplineSet
EndChar

StartChar: Oslash
Encoding: 150 216 80
Width: 1663
VWidth: 0
Flags: HW
HStem: -23 180<624.04 1050.62> 1303 180<727.345 1137.54>
VStem: 166 228<407.904 914.408> 1372 229<530.743 1050.44>
LayerCount: 2
Fore
SplineSet
438 -131 m 1
 331 -72 l 1
 1330 1555 l 1
 1437 1496 l 1
 438 -131 l 1
EndSplineSet
Refer: 70 79 N 1 0 0 1 0 0 2
EndChar

StartChar: P
Encoding: 48 80 82
Width: 1272
VWidth: 0
Flags: HW
HStem: 0 21G<189 404.705> 657 172<474 952.265> 1284 172<512 996.411>
VStem: 1072 222<933.221 1216.55>
LayerCount: 2
Fore
SplineSet
1294 1111 m 0
 1294 756 1049 657 697 657 c 2
 459 657 l 1
 403 0 l 1
 189 0 l 1
 317 1456 l 1
 704 1456 l 2
 1027 1456 1294 1426 1294 1111 c 0
719 829 m 2
 928 829 1072 879 1072 1086 c 0
 1072 1268 923 1284 712 1284 c 2
 512 1284 l 1
 474 829 l 1
 719 829 l 2
EndSplineSet
EndChar

StartChar: Q
Encoding: 49 81 83
Width: 1638
VWidth: 0
Flags: HW
HStem: -23 180<624.04 1050.62> 1303 180<727.345 1137.54>
VStem: 166 228<407.904 914.408> 1372 229<530.743 1050.44>
LayerCount: 2
Fore
SplineSet
1150 -434 m 1
 1150 -434 967 -248 870 -9 c 1
 1065 28 l 1
 1134 -147 1286 -301 1286 -301 c 1
 1150 -434 l 1
EndSplineSet
Refer: 70 79 N 1 0 0 1 0 0 2
EndChar

StartChar: R
Encoding: 50 82 84
Width: 1351
VWidth: 0
Flags: HW
HStem: 0 21G<189 403.773 1050.25 1282> 643 172<472 849.702> 1284 172<512 977.261>
VStem: 1052 216<925.438 1217.72>
LayerCount: 2
Fore
SplineSet
189 0 m 1
 317 1456 l 1
 728 1456 l 2
 957 1456 1268 1433 1268 1108 c 0
 1268 904 1187 759 971 695 c 1
 971 695 1087 656 1159 413 c 2
 1282 0 l 1
 1056 0 l 1
 933 428 l 1
 885 590 848 643 692 643 c 2
 459 643 l 1
 402 0 l 1
 189 0 l 1
735 815 m 2
 910 815 1052 875 1052 1086 c 0
 1052 1238 951 1284 777 1284 c 2
 512 1284 l 1
 472 815 l 1
 735 815 l 2
EndSplineSet
EndChar

StartChar: S
Encoding: 51 83 88
Width: 1230
VWidth: 0
Flags: HW
HStem: -23 180<416.793 824.337> 1302 181<562.813 975.538>
VStem: 229 225<965.871 1202.72> 935 222<260.639 521.383>
LayerCount: 2
Fore
SplineSet
1157 428 m 0
 1157 103 902 -23 623 -23 c 0
 308 -23 145 143 145 143 c 1
 250 295 l 1
 250 295 421 157 631 157 c 0
 826 157 935 243 935 406 c 0
 935 535 822 594 611 668 c 0
 393 744 229 838 229 1052 c 0
 229 1343 471 1483 755 1483 c 0
 1085 1483 1197 1326 1197 1326 c 1
 1077 1185 l 1
 1077 1185 981 1302 771 1302 c 0
 618 1302 454 1248 454 1079 c 0
 454 944 571 900 773 828 c 0
 1008 745 1157 643 1157 428 c 0
EndSplineSet
EndChar

StartChar: T
Encoding: 52 84 94
Width: 1155
VWidth: 0
Flags: HW
HStem: 0 21G<472 683.729> 1284 172<140 583 793 1259>
AnchorPoint: "bot" 571 0 basechar 0
LayerCount: 2
Fore
SplineSet
472 0 m 1
 583 1284 l 1
 124 1284 l 1
 140 1456 l 1
 1274 1456 l 1
 1259 1284 l 1
 793 1284 l 1
 682 0 l 1
 472 0 l 1
EndSplineSet
EndChar

StartChar: Tbar
Encoding: 292 358 95
Width: 1155
VWidth: 0
Flags: HW
HStem: 0 21<472 683.729> 621 156<282 999> 1284 172<140 583 793 1259>
LayerCount: 2
Fore
SplineSet
269 621 m 1
 282 777 l 1
 1013 777 l 1
 999 621 l 1
 269 621 l 1
EndSplineSet
Refer: 94 84 N 1 0 0 1 0 0 2
EndChar

StartChar: Thorn
Encoding: 156 222 98
Width: 1285
VWidth: 0
Flags: HW
HStem: 0 21G<165 375.775> 338 180<420 878.78> 1038 180<482 920.62>
VStem: 1022 226<650.613 950.56>
LayerCount: 2
Fore
SplineSet
1248 832 m 0
 1248 480 964 338 628 338 c 2
 404 338 l 1
 374 0 l 1
 165 0 l 1
 292 1449 l 1
 502 1449 l 1
 482 1218 l 1
 668 1218 l 2
 991 1218 1248 1149 1248 832 c 0
666 518 m 2
 878 518 1022 605 1022 811 c 0
 1022 994 884 1038 666 1038 c 2
 465 1038 l 1
 420 518 l 1
 666 518 l 2
EndSplineSet
EndChar

StartChar: U
Encoding: 53 85 99
Width: 1493
VWidth: 0
Flags: HW
HStem: -23 180<555.236 963.976> 1436 20G<292.242 508 1240.24 1456>
VStem: 211 215<289.176 708.395>
AnchorPoint: "ogonek" 829 -1 basechar 0
LayerCount: 2
Fore
SplineSet
743 -23 m 0
 339 -23 211 179 211 462 c 0
 211 493 212 524 215 557 c 2
 294 1456 l 1
 508 1456 l 1
 429 550 l 2
 427 525 426 501 426 478 c 0
 426 248 541 157 762 157 c 0
 993 157 1138 270 1162 547 c 2
 1242 1456 l 1
 1456 1456 l 1
 1377 562 l 2
 1346 218 1176 -23 743 -23 c 0
EndSplineSet
EndChar

StartChar: V
Encoding: 54 86 110
Width: 1315
VWidth: 0
Flags: HW
HStem: 0 21G<550.492 777.901> 1436 20G<155 392 1189.52 1417>
LayerCount: 2
Fore
SplineSet
556 0 m 1
 155 1456 l 1
 387 1456 l 1
 633 472 l 1
 689 265 l 1
 781 472 l 1
 1198 1456 l 1
 1417 1456 l 1
 769 0 l 1
 556 0 l 1
EndSplineSet
EndChar

StartChar: W
Encoding: 55 87 111
Width: 2031
VWidth: 0
Flags: HW
HStem: 0 21G<424.291 674.688 1362.83 1613.09> 1436 20G<158 383.41 1035.36 1257.29 1901.37 2122>
LayerCount: 2
Fore
SplineSet
428 0 m 1
 158 1456 l 1
 380 1456 l 1
 543 500 l 1
 584 252 l 1
 673 487 l 1
 1043 1456 l 1
 1253 1456 l 1
 1460 492 l 1
 1510 255 l 1
 1587 487 l 1
 1908 1456 l 1
 2122 1456 l 1
 1606 0 l 1
 1367 0 l 1
 1121 1181 l 1
 667 0 l 1
 428 0 l 1
EndSplineSet
EndChar

StartChar: X
Encoding: 56 88 116
Width: 1318
VWidth: 0
Flags: HW
HStem: 0 21G<24 279.544 1033.14 1291> 1436 20G<173 432.691 1141.63 1391>
LayerCount: 2
Fore
SplineSet
1045 0 m 1
 707 570 l 1
 264 0 l 1
 24 0 l 1
 599 736 l 1
 173 1456 l 1
 421 1456 l 1
 739 912 l 1
 1157 1456 l 1
 1391 1456 l 1
 846 747 l 1
 1291 0 l 1
 1045 0 l 1
EndSplineSet
EndChar

StartChar: Y
Encoding: 57 89 117
Width: 1258
VWidth: 0
Flags: HW
HStem: 0 21G<520 732.744> 1436 20G<142 383.472 1117.3 1370>
LayerCount: 2
Fore
SplineSet
520 0 m 1
 571 582 l 1
 142 1456 l 1
 374 1456 l 1
 697 774 l 1
 1130 1456 l 1
 1370 1456 l 1
 782 585 l 1
 731 0 l 1
 520 0 l 1
EndSplineSet
EndChar

StartChar: Z
Encoding: 58 90 122
Width: 1198
VWidth: 0
Flags: HW
HStem: 0 180<388 1114> 1276 180<252 943>
LayerCount: 2
Fore
SplineSet
95 0 m 1
 106 113 l 1
 943 1276 l 1
 237 1276 l 1
 252 1456 l 1
 1243 1456 l 1
 1234 1347 l 1
 388 180 l 1
 1130 180 l 1
 1114 0 l 1
 95 0 l 1
EndSplineSet
EndChar

StartChar: a
Encoding: 65 97 126
Width: 1265
VWidth: 0
Flags: W
HStem: -23 164<467.608 767.775> 0 21G<909 1113.75> 886 165<529.38 848.161> 1006 20G<1001.83 1202>
VStem: 141 206<270.54 683.46> 991 211<862.57 1026>
AnchorPoint: "ogonek" 1003 -1 basechar 0
LayerCount: 2
UndoRedoHistory
Layer: 1
Undoes
EndUndoes
Redoes
EndRedoes
EndUndoRedoHistory
Fore
SplineSet
630 141 m 0xac
 847 141 965 307 965 582 c 0
 965 767 878 886 690 886 c 0
 467 886 347 698 347 460 c 0
 347 284 428 141 630 141 c 0xac
141 460 m 0
 141 774 337 1051 661 1051 c 0xac
 848 1051 968 943 991 821 c 1
 1003 1026 l 1
 1202 1026 l 1
 1112 0 l 1
 909 0 l 1x5c
 935 217 l 1
 891 79 766 -23 583 -23 c 0
 285 -23 141 218 141 460 c 0
EndSplineSet
EndChar

StartChar: acute
Encoding: 115 180 130
Width: 607
VWidth: 0
Flags: HW
HStem: 1170 317
VStem: 120 534
LayerCount: 2
Fore
SplineSet
120 1170 m 1
 393 1487 l 1
 654 1487 l 1
 297 1170 l 1
 120 1170 l 1
EndSplineSet
EndChar

StartChar: ae
Encoding: 164 230 132
Width: 1723
VWidth: 0
Flags: HW
HStem: -25 166<357.428 667.763 1116.57 1483.57> 462 156<415.743 806> 484 134<1018 1436> 887 166<430.957 750.105 1183.38 1467.29>
VStem: 132 184<182.861 381.138> 806 195<295.943 462> 1503 176<677.749 851.356>
LayerCount: 2
Fore
SplineSet
468 -25 m 0xbe
 256 -25 132 111 132 259 c 0
 132 577 458 618 759 618 c 2xde
 820 618 l 1
 821 629 821 641 821 652 c 0
 821 772 767 887 631 887 c 0
 517 887 401 850 305 748 c 1
 240 891 l 1
 333 999 481 1053 662 1053 c 0
 772 1053 922 998 941 812 c 1
 1028 1001 1196 1051 1343 1051 c 0
 1547 1051 1679 908 1679 765 c 0
 1679 624 1550 484 1232 484 c 2
 1003 484 l 1
 1003 469 1001 452 1001 436 c 0
 1001 260 1094 141 1285 141 c 0
 1438 141 1563 222 1622 268 c 1
 1669 111 l 1
 1602 62 1467 -22 1260 -22 c 0
 1088 -22 948 72 880 210 c 1
 798 67 654 -25 468 -25 c 0xbe
720 462 m 2
 514 462 316 441 316 279 c 0
 316 179 402 141 503 141 c 0
 715 141 789 295 806 462 c 1
 720 462 l 2
1018 618 m 1xbe
 1258 618 l 2
 1430 618 1503 693 1503 764 c 0
 1503 827 1445 888 1344 888 c 0
 1183 888 1054 764 1018 618 c 1xbe
EndSplineSet
EndChar

StartChar: ampersand
Encoding: 6 38 135
Width: 1576
VWidth: 0
Flags: HW
HStem: -27 171<509.532 870.687> 1314 165<645.489 892.447>
VStem: 190 210<244.835 556.493> 391 202<1017.93 1263.43> 922 204<1068.98 1282.25> 1291 191<665.16 871.627>
LayerCount: 2
Fore
SplineSet
391 1152 m 0xdc
 391 1369 587 1479 782 1479 c 0
 954 1479 1126 1392 1126 1210 c 0
 1126 1034 988 920 804 813 c 1
 1139 422 l 1
 1230 553 1276 737 1291 904 c 1
 1482 869 l 1
 1461 666 1385 440 1263 284 c 1
 1331 211 1410 148 1580 108 c 1
 1415 -16 l 1
 1289 4 1199 89 1132 162 c 1
 1013 53 855 -27 658 -27 c 0
 383 -27 190 117 190 363 c 0xec
 190 614 340 742 540 855 c 1
 460 951 391 1037 391 1152 c 0xdc
641 731 m 1
 503 653 400 557 400 389 c 0
 400 247 503 144 672 144 c 0
 820 144 924 205 1017 289 c 1
 641 731 l 1
776 1314 m 0
 684 1314 593 1262 593 1155 c 0xdc
 593 1074 642 998 703 931 c 1
 828 1003 922 1079 922 1189 c 0
 922 1279 845 1314 776 1314 c 0
EndSplineSet
EndChar

StartChar: approxequal
Encoding: 428 8776 137
Width: 1351
VWidth: 0
Flags: HW
HStem: 253 150<827.51 1026.67> 411 152<399.578 628.894> 613 148<839.46 1059.46> 772 149<431.138 653.249>
LayerCount: 2
Fore
SplineSet
328 245 m 1
 176 286 l 1
 235 457 355 563 514 563 c 0
 608 563 694 520 769 477 c 1
 838 444 893 403 937 403 c 0
 1007 403 1057 464 1104 569 c 1
 1250 530 l 1
 1197 365 1094 253 920 253 c 0
 839 253 759 288 659 350 c 1
 601 383 545 411 500 411 c 0
 418 411 364 347 328 245 c 1
360 608 m 1
 206 643 l 1
 259 815 382 921 544 921 c 0
 632 921 703 888 789 834 c 1
 866 787 926 761 967 761 c 0
 1036 761 1088 821 1134 926 c 1
 1280 890 l 1
 1228 722 1121 613 950 613 c 0
 861 613 788 644 686 708 c 0
 628 744 577 772 528 772 c 0
 451 772 398 705 360 608 c 1
EndSplineSet
EndChar

StartChar: asciicircum
Encoding: 62 94 139
Width: 1301
VWidth: 0
Flags: HW
HStem: 1436 20G<707.299 858.356>
LayerCount: 2
Fore
SplineSet
158 571 m 1
 720 1456 l 1
 849 1456 l 1
 1263 571 l 1
 1062 571 l 1
 763 1232 l 1
 361 571 l 1
 158 571 l 1
EndSplineSet
EndChar

StartChar: asciitilde
Encoding: 94 126 140
Width: 1329
VWidth: 0
Flags: HW
HStem: 395 167<818.292 1034.44> 538 165<410.188 655.857>
LayerCount: 2
Fore
SplineSet
333 362 m 1x40
 187 435 l 1
 230 581 345 703 518 703 c 0x40
 600 703 696 660 779 623 c 1
 815 609 913 562 950 562 c 0
 1022 562 1083 649 1112 740 c 1
 1274 689 l 1
 1221 519 1104 395 937 395 c 0x80
 875 395 794 431 715 469 c 1
 680 483 561 538 508 538 c 0
 420 538 364 456 333 362 c 1x40
EndSplineSet
EndChar

StartChar: asterisk
Encoding: 10 42 141
Width: 1094
VWidth: 0
Flags: HW
HStem: 1436 20G<579 769>
VStem: 579 190<1370.86 1456>
LayerCount: 2
Fore
SplineSet
774 696 m 1
 636 949 l 1
 455 699 l 1
 310 800 l 1
 530 1032 l 1
 266 1127 l 1
 333 1283 l 1
 586 1163 l 1
 579 1456 l 1
 769 1456 l 1
 720 1165 l 1
 971 1284 l 1
 1031 1133 l 1
 756 1034 l 1
 938 795 l 1
 774 696 l 1
EndSplineSet
EndChar

StartChar: at
Encoding: 32 64 142
Width: 1722
VWidth: 0
Flags: HW
HStem: -81 136<683.728 1175.05> 261 121<1232.74 1387.85> 275 156<735.031 925.451> 991 164<891.741 1104.26> 1350 129<803.976 1274.81>
VStem: 168 166<391.118 876.119> 520 187<460.028 764.944> 1073 152<385.946 580.838> 1555 137<623.79 1078.09>
LayerCount: 2
Fore
SplineSet
1013 991 m 0xbf80
 853 991 707 763 707 575 c 0
 707 488 748 431 829 431 c 0
 978 431 1123 648 1123 863 c 0
 1123 944 1091 991 1013 991 c 0xbf80
1047 1350 m 0
 678 1350 334 1067 334 616 c 0
 334 262 595 55 921 55 c 0
 1086 55 1256 107 1401 208 c 1
 1462 122 l 1
 1311 -6 1106 -81 897 -81 c 0
 470 -81 168 194 168 607 c 0
 168 1134 590 1479 1047 1479 c 0
 1428 1479 1692 1230 1692 869 c 0
 1692 556 1493 261 1263 261 c 0xdf80
 1133 261 1074 335 1073 444 c 0
 1074 458 1074 475 1077 490 c 1
 1008 368 906 275 781 275 c 0xbf80
 642 275 520 378 520 582 c 0
 520 900 793 1155 1006 1155 c 0
 1098 1155 1172 1107 1196 1008 c 1
 1225 1118 l 1
 1397 1118 l 1
 1290 743 l 2
 1250 604 1225 542 1225 473 c 0
 1225 413 1248 382 1291 382 c 0xdf80
 1409 382 1555 607 1555 867 c 0
 1555 1172 1336 1350 1047 1350 c 0
EndSplineSet
EndChar

StartChar: b
Encoding: 66 98 144
Width: 1267
VWidth: 0
Flags: W
HStem: -23 164<533.989 836.141> 0 21G<156 365.514> 886 165<606.686 897.359> 1456 20G<291.257 496>
VStem: 1007 214<343.036 764.18>
LayerCount: 2
UndoRedoHistory
Layer: 1
Undoes
EndUndoes
Redoes
EndRedoes
EndUndoRedoHistory
Fore
SplineSet
713 -23 m 0xb8
 502 -23 404 123 378 185 c 1
 364 0 l 1
 156 0 l 1x78
 156 0 180 180 188 271 c 2
 293 1476 l 1
 496 1476 l 1
 440 857 l 1
 488 951 621 1051 797 1051 c 0
 1053 1051 1221 858 1221 582 c 0
 1221 217 982 -23 713 -23 c 0xb8
403 469 m 0
 403 273 503 141 689 141 c 0xb8
 886 141 1007 328 1007 578 c 0
 1007 760 920 886 748 886 c 0
 541 886 403 714 403 469 c 0
EndSplineSet
EndChar

StartChar: backslash
Encoding: 60 92 145
Width: 825
VWidth: 0
Flags: HW
HStem: 1436 20G<151 369.44>
LayerCount: 2
Fore
SplineSet
636 -44 m 1
 151 1456 l 1
 363 1456 l 1
 846 -44 l 1
 636 -44 l 1
EndSplineSet
EndChar

StartChar: bar
Encoding: 92 124 146
Width: 781
VWidth: 0
Flags: HW
VStem: 267 369
LayerCount: 2
Fore
SplineSet
267 -474 m 1
 442 1527 l 1
 636 1527 l 1
 461 -474 l 1
 267 -474 l 1
EndSplineSet
EndChar

StartChar: braceleft
Encoding: 91 123 147
Width: 693
VWidth: 0
Flags: HW
HStem: -208 158<527.352 642> 563 147<165 267.204> 1321 159<657.14 777>
VStem: 285 210<-19.166 259.876> 309 209<85.5394 520.98>
LayerCount: 2
Fore
SplineSet
642 -208 m 1xf0
 397 -205 285 -106 285 71 c 0xf0
 285 84 286 97 287 110 c 2
 307 340 l 2
 308 356 309 371 309 385 c 0
 309 495 263 557 152 563 c 1
 165 710 l 1
 276 715 345 786 357 911 c 1
 377 1140 l 2
 394 1336 504 1480 789 1480 c 1
 777 1321 l 1
 654 1319 595 1250 583 1111 c 2
 561 861 l 2
 550 738 459 665 363 632 c 1
 454 591 518 507 518 396 c 0xe8
 518 388 518 380 517 372 c 2
 497 132 l 2
 496 120 495 109 495 99 c 0
 495 -24 565 -49 655 -50 c 1
 642 -208 l 1xf0
EndSplineSet
EndChar

StartChar: braceright
Encoding: 93 125 148
Width: 803
VWidth: 0
Flags: HW
HStem: -212 159<113 242.793> 558 147<626.523 726> 1318 158<249 363.216>
VStem: 373 208<747.836 1059.84> 396 209<808.591 1284.87>
LayerCount: 2
Fore
SplineSet
101 -212 m 1xf0
 113 -53 l 1
 236 -52 296 18 308 157 c 2
 330 407 l 2
 341 530 432 604 527 636 c 1
 437 677 373 761 373 872 c 0
 373 880 372 888 373 896 c 2xf0
 394 1136 l 2
 395 1148 396 1159 396 1169 c 0
 396 1293 325 1318 235 1318 c 1
 249 1476 l 1
 493 1473 605 1374 605 1198 c 0xe8
 605 1185 604 1172 603 1158 c 2
 583 928 l 2
 582 913 581 899 581 885 c 0
 581 774 626 712 738 705 c 1
 726 558 l 1
 615 553 544 481 533 356 c 2
 514 128 l 2
 497 -67 387 -212 101 -212 c 1xf0
EndSplineSet
EndChar

StartChar: bracketleft
Encoding: 59 91 149
Width: 689
VWidth: 0
Flags: HW
HStem: -231 154<376 572> 1302 154<496 705>
VStem: 158 561
LayerCount: 2
Fore
SplineSet
158 -231 m 1
 305 1456 l 1
 719 1456 l 1
 705 1302 l 1
 496 1302 l 1
 376 -77 l 1
 586 -77 l 1
 572 -231 l 1
 158 -231 l 1
EndSplineSet
EndChar

StartChar: bracketright
Encoding: 61 93 150
Width: 675
VWidth: 0
Flags: HW
HStem: -231 154<96 302> 1302 154<230 423>
VStem: 82 560
LayerCount: 2
Fore
SplineSet
82 -231 m 1
 96 -77 l 1
 302 -77 l 1
 423 1302 l 1
 216 1302 l 1
 230 1456 l 1
 642 1456 l 1
 494 -231 l 1
 82 -231 l 1
EndSplineSet
EndChar

StartChar: breve
Encoding: 365 728 151
Width: 628
VWidth: 0
Flags: HW
HStem: 1192 139<314.715 568.065> 1436 20G<149 284 606 747>
VStem: 150 132<1364.8 1456> 618 129<1380.54 1456>
LayerCount: 2
Fore
SplineSet
428 1192 m 0
 251 1192 148 1276 150 1456 c 1
 282 1456 l 1
 286 1360 363 1331 437 1331 c 0
 511 1331 594 1363 618 1456 c 1
 747 1456 l 1
 718 1278 601 1192 428 1192 c 0
EndSplineSet
EndChar

StartChar: brokenbar
Encoding: 101 166 152
Width: 500
VWidth: 0
Flags: HW
HStem: 1436 20G<321.25 485>
VStem: 149 336
LayerCount: 2
Fore
SplineSet
149 -545 m 1
 225 333 l 1
 388 333 l 1
 312 -545 l 1
 149 -545 l 1
244 553 m 1
 323 1456 l 1
 485 1456 l 1
 406 553 l 1
 244 553 l 1
EndSplineSet
EndChar

StartChar: bullet
Encoding: 409 8226 153
Width: 988
VWidth: 0
Flags: HW
HStem: 372 638<415.608 698.895>
VStem: 217 676
LayerCount: 2
Fore
SplineSet
526 372 m 0
 330 372 202 518 217 688 c 0
 232 862 397 1010 583 1010 c 0
 775 1010 908 867 893 695 c 0
 878 521 714 372 526 372 c 0
EndSplineSet
EndChar

StartChar: c
Encoding: 67 99 154
Width: 1038
VWidth: 0
Flags: W
HStem: -23 164<484.108 842.1> 886 165<543.648 890.064>
VStem: 139 214<275.916 678.331>
LayerCount: 2
UndoRedoHistory
Layer: 1
Undoes
EndUndoes
Redoes
EndRedoes
EndUndoRedoHistory
Fore
SplineSet
713 886 m 0
 498 886 353 719 353 459 c 0
 353 264 463 141 648 141 c 0
 768 141 871 193 932 236 c 1
 982 89 l 1
 879 16 757 -23 615 -23 c 0
 313 -23 139 173 139 446 c 0
 139 796 379 1051 705 1051 c 0
 853 1051 978 1006 1049 919 c 1
 953 791 l 1
 897 851 821 886 713 886 c 0
EndSplineSet
EndChar

StartChar: caron
Encoding: 363 711 156
Width: 699
VWidth: 0
Flags: HW
HStem: 1124 383
LayerCount: 2
Fore
SplineSet
366 1124 m 1
 123 1507 l 1
 318 1507 l 1
 464 1254 l 1
 633 1507 l 1
 836 1507 l 1
 542 1124 l 1
 366 1124 l 1
EndSplineSet
EndChar

StartChar: cedilla
Encoding: 118 184 161
Width: 529
VWidth: 0
Flags: HW
HStem: -473 110<24.5564 289.89>
VStem: 186 104<-33.2217 25> 307 176<-340.452 -195.313>
AnchorPoint: "bot" 230 0 mark 0
LayerCount: 2
Fore
SplineSet
483 -271 m 0
 483 -404 350 -473 173 -473 c 0
 119 -473 63 -466 8 -454 c 1
 29 -346 l 1
 67 -355 116 -363 161 -363 c 0
 240 -363 307 -339 307 -266 c 0
 307 -211 253 -174 166 -174 c 0
 160 -174 143 -173 137 -174 c 1
 186 25 l 1
 290 25 l 1
 267 -95 l 1
 407 -101 483 -182 483 -271 c 0
EndSplineSet
EndChar

StartChar: cent
Encoding: 97 162 162
Width: 1113
VWidth: 0
Flags: HW
HStem: -2 164<521.108 879.1> 907 165<580.648 927.064>
VStem: 176 214<296.916 699.331>
LayerCount: 2
Fore
SplineSet
580 -204 m 1
 710 1268 l 1
 809 1268 l 1
 679 -204 l 1
 580 -204 l 1
EndSplineSet
Refer: 154 99 N 1 0 0 1 37 21 2
EndChar

StartChar: circumflex
Encoding: 362 710 163
Width: 699
VWidth: 0
Flags: HW
HStem: 1124 383
LayerCount: 2
Fore
SplineSet
110 1124 m 1
 393 1507 l 1
 571 1507 l 1
 795 1124 l 1
 621 1124 l 1
 476 1374 l 1
 282 1124 l 1
 110 1124 l 1
EndSplineSet
EndChar

StartChar: colon
Encoding: 26 58 164
Width: 542
VWidth: 0
Flags: HW
HStem: 0 238<185 397> 862 238<250 462>
VStem: 164 319
LayerCount: 2
Fore
SplineSet
229 862 m 1
 250 1100 l 1
 483 1100 l 1
 462 862 l 1
 229 862 l 1
164 0 m 1
 185 238 l 1
 418 238 l 1
 397 0 l 1
 164 0 l 1
EndSplineSet
EndChar

StartChar: comma
Encoding: 12 44 165
Width: 525
VWidth: 0
Flags: W
HStem: -272 520<210 218>
VStem: 49 383
LayerCount: 2
Fore
SplineSet
49 -272 m 1
 210 248 l 1
 432 248 l 1
 218 -272 l 1
 49 -272 l 1
EndSplineSet
EndChar

StartChar: commaaccent
Encoding: 438 -1 166
Width: 540
VWidth: 0
Flags: HW
HStem: -575 483<220 237>
VStem: 68 382
LayerCount: 2
Fore
SplineSet
68 -575 m 1
 220 -92 l 1
 450 -92 l 1
 237 -575 l 1
 68 -575 l 1
EndSplineSet
EndChar

StartChar: copyright
Encoding: 104 169 167
Width: 1829
VWidth: 0
Flags: HW
HStem: -27 113<689.225 1171.34> 270 153<836.233 1187.75> 1028 152<876.757 1225.18> 1367 117<797.339 1279.07>
VStem: 190 137<439.24 912.365> 536 185<539.135 865.978> 1642 135<543.445 1015.98>
LayerCount: 2
Fore
SplineSet
1042 1028 m 0
 853 1028 721 883 721 694 c 0
 721 541 819 423 1002 423 c 0
 1078 423 1160 446 1242 496 c 1
 1276 359 l 1
 1179 299 1072 270 966 270 c 0
 718 270 536 437 536 681 c 0
 536 982 773 1180 1051 1180 c 0
 1155 1180 1253 1149 1338 1085 c 1
 1284 948 l 1
 1209 1002 1126 1028 1042 1028 c 0
1048 1484 m 0
 1474 1484 1777 1177 1777 793 c 0
 1777 332 1378 -27 920 -27 c 0
 492 -27 190 277 190 663 c 0
 190 1125 591 1484 1048 1484 c 0
1040 1367 m 0
 648 1367 327 1068 327 669 c 0
 327 339 572 86 930 86 c 0
 1320 86 1642 388 1642 786 c 0
 1642 1117 1397 1367 1040 1367 c 0
EndSplineSet
EndChar

StartChar: currency
Encoding: 99 164 168
Width: 1218
VWidth: 0
Flags: HW
HStem: 640 71<562.854 844.702> 1332 78<603.989 898.392>
VStem: 336 88<836.624 1160.87> 1031 91<879.783 1211.6>
LayerCount: 2
Fore
SplineSet
1122 1060 m 0
 1122 945 1080 854 1011 780 c 1
 1181 595 l 1
 1125 544 l 1
 955 730 l 1
 882 674 792 640 696 640 c 0
 600 640 515 674 452 731 c 1
 248 544 l 1
 202 595 l 1
 405 782 l 1
 362 840 336 912 336 992 c 0
 336 1110 384 1203 455 1277 c 1
 277 1472 l 1
 333 1523 l 1
 513 1327 l 1
 584 1379 671 1410 763 1410 c 0
 855 1410 936 1379 999 1328 c 1
 1211 1523 l 1
 1257 1472 l 1
 1047 1279 l 1
 1094 1219 1122 1144 1122 1060 c 0
755 1332 m 0
 574 1332 424 1187 424 993 c 0
 424 833 537 711 701 711 c 0
 881 711 1031 859 1031 1053 c 0
 1031 1212 919 1332 755 1332 c 0
EndSplineSet
EndChar

StartChar: d
Encoding: 68 100 169
Width: 1253
VWidth: 0
Flags: W
HStem: -23 164<467.74 760.876> 0 21G<893 1105> 886 165<530.737 834.826> 1456 20G<1017.28 1222>
VStem: 139 216<262.112 685.212>
LayerCount: 2
UndoRedoHistory
Layer: 1
Undoes
EndUndoes
Redoes
EndRedoes
EndUndoRedoHistory
Fore
SplineSet
139 444 m 0xb8
 139 794 352 1051 674 1051 c 0
 825 1051 931 977 969 893 c 1
 1019 1476 l 1
 1222 1476 l 1
 1117 265 l 2
 1113 213 1109 153 1101 0 c 1
 893 0 l 1x78
 906 164 l 1
 862 74 748 -23 570 -23 c 0
 321 -23 139 156 139 444 c 0xb8
682 886 m 0
 478 886 355 704 355 457 c 0
 355 273 440 141 615 141 c 0xb8
 822 141 943 333 943 583 c 0
 943 762 855 886 682 886 c 0
EndSplineSet
EndChar

StartChar: dagger
Encoding: 407 8224 170
Width: 1022
VWidth: 0
Flags: HW
HStem: 911 163<144 453 641 961>
LayerCount: 2
Fore
SplineSet
380 78 m 1
 453 911 l 1
 130 911 l 1
 144 1074 l 1
 467 1074 l 1
 499 1446 l 1
 674 1446 l 1
 641 1074 l 1
 975 1074 l 1
 961 911 l 1
 620 911 l 1
 547 78 l 1
 380 78 l 1
EndSplineSet
EndChar

StartChar: daggerdbl
Encoding: 408 8225 171
Width: 1071
VWidth: 0
Flags: HW
HStem: 414 143<126 454 630 947> 928 150<176 499 676 1001>
LayerCount: 2
Fore
SplineSet
404 -6 m 1
 454 414 l 1
 113 414 l 1
 126 557 l 1
 466 557 l 1
 499 928 l 1
 163 928 l 1
 176 1078 l 1
 512 1078 l 1
 531 1446 l 1
 717 1446 l 1
 676 1078 l 1
 1014 1078 l 1
 1001 928 l 1
 662 928 l 1
 630 557 l 1
 960 557 l 1
 947 414 l 1
 618 414 l 1
 590 -6 l 1
 404 -6 l 1
EndSplineSet
EndChar

StartChar: uni030F
Encoding: 372 783 172
Width: 969
VWidth: 0
Flags: HW
HStem: 1174 313
LayerCount: 2
Fore
SplineSet
365 1174 m 1
 117 1487 l 1
 293 1487 l 1
 485 1174 l 1
 365 1174 l 1
694 1174 m 1
 447 1487 l 1
 623 1487 l 1
 812 1174 l 1
 694 1174 l 1
EndSplineSet
EndChar

StartChar: dcroat
Encoding: 207 273 174
Width: 1255
VWidth: 0
Flags: HW
HStem: -23 164<467.74 760.876> 0 21<893 1105> 886 165<530.737 834.826> 1221 137<721 1321> 1456 20<1017.28 1222>
VStem: 139 216<262.112 685.212>
LayerCount: 2
Fore
SplineSet
707 1221 m 5x3c
 721 1358 l 1
 1334 1358 l 1
 1321 1221 l 5
 707 1221 l 5x3c
EndSplineSet
Refer: 169 100 N 1 0 0 1 0 0 2
EndChar

StartChar: degree
Encoding: 111 176 175
Width: 844
VWidth: 0
Flags: HW
HStem: 880 131<411.137 632.766> 1352 128<433.122 653.016>
VStem: 227 146<1051.1 1289.95> 693 150<1071.29 1313.39>
LayerCount: 2
Fore
SplineSet
547 1352 m 0
 438 1352 373 1261 373 1163 c 0
 373 1082 422 1011 519 1011 c 0
 630 1011 693 1101 693 1199 c 0
 693 1281 642 1352 547 1352 c 0
843 1209 m 0
 843 1038 708 880 509 880 c 0
 332 880 227 1005 227 1151 c 0
 227 1322 361 1480 561 1480 c 0
 738 1480 843 1355 843 1209 c 0
EndSplineSet
EndChar

StartChar: dieresis
Encoding: 103 168 176
Width: 743
VWidth: 0
Flags: HW
HStem: 1212 195<196 383 592 778>
VStem: 179 616
LayerCount: 2
Fore
SplineSet
179 1212 m 1
 196 1407 l 1
 400 1407 l 1
 383 1212 l 1
 179 1212 l 1
574 1212 m 1
 592 1407 l 1
 795 1407 l 1
 778 1212 l 1
 574 1212 l 1
EndSplineSet
EndChar

StartChar: divide
Encoding: 181 247 177
Width: 1350
VWidth: 0
Flags: HW
HStem: 2 240<567 803> 468 171<225 1212> 858 238<641 875>
LayerCount: 2
Fore
SplineSet
547 2 m 1
 567 242 l 1
 824 242 l 1
 803 2 l 1
 547 2 l 1
210 468 m 1
 225 639 l 1
 1226 639 l 1
 1212 468 l 1
 210 468 l 1
620 858 m 1
 641 1096 l 1
 896 1096 l 1
 875 858 l 1
 620 858 l 1
EndSplineSet
EndChar

StartChar: dollar
Encoding: 4 36 178
Width: 1209
VWidth: 0
Flags: HW
HStem: -23 180<416.793 824.337> 1302 181<562.813 975.538>
VStem: 229 225<965.871 1202.72> 935 222<260.639 521.383>
LayerCount: 2
Fore
SplineSet
575 -195 m 1
 735 1621 l 1
 822 1621 l 1
 663 -195 l 1
 575 -195 l 1
EndSplineSet
Refer: 88 83 N 1 0 0 1 0 0 2
EndChar

StartChar: dotaccent
Encoding: 366 729 179
Width: 524
VWidth: 0
Flags: HW
HStem: 1241 194<296 480>
VStem: 280 216
LayerCount: 2
Fore
SplineSet
280 1241 m 1
 296 1435 l 1
 496 1435 l 1
 480 1241 l 1
 280 1241 l 1
EndSplineSet
EndChar

StartChar: uni0307
Encoding: 371 775 180
Width: 524
VWidth: 0
Flags: HW
HStem: 1246 163<305 451>
VStem: 293 158<1246 1409>
LayerCount: 2
Fore
SplineSet
293 1246 m 1
 305 1409 l 1
 462 1409 l 1
 451 1246 l 1
 293 1246 l 1
EndSplineSet
EndChar

StartChar: dotlessi
Encoding: 239 305 181
Width: 526
VWidth: 0
Flags: HW
HStem: 0 21G<175 381.735> 1006 20G<263.246 469>
VStem: 175 294
LayerCount: 2
Fore
SplineSet
175 0 m 1
 265 1026 l 1
 469 1026 l 1
 380 0 l 1
 175 0 l 1
EndSplineSet
EndChar

StartChar: uni0237
Encoding: 361 567 182
Width: 542
VWidth: 0
Flags: HW
HStem: -391 156<-92.5657 130.895> 1006 20G<287.262 493>
VStem: -118 611
LayerCount: 2
Fore
SplineSet
39 -391 m 0
 -9 -391 -59 -386 -118 -373 c 1
 -88 -222 l 1
 -49 -230 -17 -235 12 -235 c 0
 146 -235 187 -147 204 48 c 2
 289 1026 l 1
 493 1026 l 1
 404 15 l 2
 383 -220 297 -391 39 -391 c 0
EndSplineSet
EndChar

StartChar: e
Encoding: 69 101 183
Width: 1152
VWidth: 0
Flags: W
HStem: -23 164<486.118 868.55> 484 140<373 933> 891 161<532.566 831.599>
VStem: 141 215<281.464 484> 933 174<624 782>
AnchorPoint: "ogonek" 755 0 basechar 0
LayerCount: 2
UndoRedoHistory
Layer: 1
Undoes
EndUndoes
Redoes
EndRedoes
EndUndoRedoHistory
Fore
SplineSet
692 1052 m 0
 966 1052 1107 863 1107 601 c 0
 1107 554 1100 496 1097 484 c 1
 356 484 l 1
 356 239 479 141 669 141 c 0
 798 141 924 205 997 257 c 1
 1040 105 l 1
 962 48 826 -23 637 -23 c 0
 353 -23 141 166 141 454 c 4
 141 799 372 1052 692 1052 c 0
373 624 m 1
 933 624 l 1
 929 804 820 891 684 891 c 0
 530 891 417 784 373 624 c 1
EndSplineSet
EndChar

StartChar: eight
Encoding: 24 56 191
Width: 1237
VWidth: 0
Flags: HW
HStem: -23 173<480.746 826.591> 1313 170<583.038 902.232>
VStem: 173 215<234.596 520.194> 269 209<950.989 1211.08> 952 210<267.667 551.413> 983 209<980.002 1236.38>
LayerCount: 2
Fore
SplineSet
1162 415 m 0xc8
 1162 128 900 -23 634 -23 c 0
 375 -23 173 110 173 347 c 0xe8
 173 549 296 691 491 763 c 1
 354 823 269 925 269 1071 c 0
 269 1335 493 1483 763 1483 c 0
 1022 1483 1192 1355 1192 1139 c 0xd4
 1192 948 1082 825 914 762 c 1
 1069 701 1162 572 1162 415 c 0xc8
696 681 m 1
 523 646 388 539 388 370 c 0
 388 231 491 150 648 150 c 0
 817 150 952 243 952 419 c 0
 952 549 844 647 696 681 c 1
748 1313 m 0
 603 1313 478 1232 478 1077 c 0
 478 960 562 880 708 847 c 1
 871 884 983 975 983 1123 c 0xd4
 983 1242 877 1313 748 1313 c 0
EndSplineSet
EndChar

StartChar: ellipsis
Encoding: 410 8230 192
Width: 1620
VWidth: 0
Flags: HW
HStem: -6 239<148 385 679 916 1211 1446>
LayerCount: 2
Fore
SplineSet
128 -6 m 1
 148 233 l 1
 405 233 l 1
 385 -6 l 1
 128 -6 l 1
659 -6 m 1
 679 233 l 1
 936 233 l 1
 916 -6 l 1
 659 -6 l 1
1190 -6 m 1
 1211 233 l 1
 1466 233 l 1
 1446 -6 l 1
 1190 -6 l 1
EndSplineSet
EndChar

StartChar: emdash
Encoding: 399 8212 194
Width: 2171
VWidth: 0
Flags: HW
HStem: 472 169<65 2184>
LayerCount: 2
Fore
SplineSet
50 472 m 1
 65 641 l 1
 2200 641 l 1
 2184 472 l 1
 50 472 l 1
EndSplineSet
EndChar

StartChar: endash
Encoding: 398 8211 195
Width: 1085
VWidth: 0
Flags: HW
HStem: 472 169<51 1133>
LayerCount: 2
Fore
SplineSet
36 472 m 1
 51 641 l 1
 1148 641 l 1
 1133 472 l 1
 36 472 l 1
EndSplineSet
EndChar

StartChar: eng
Encoding: 265 331 196
Width: 1221
VWidth: 0
Flags: HW
HStem: -398 161<262.726 729.649> 0 21G<165 370.735> 886 165<591.882 868.717> 1006 20G<241.048 454>
VStem: 242 212<881 1026>
LayerCount: 2
Fore
SplineSet
203 -352 m 1xe8
 243 -187 l 1
 356 -219 460 -237 548 -237 c 0
 747 -237 855 -140 874 85 c 2
 916 565 l 2
 934 774 909 886 734 886 c 0xe8
 586 886 435 754 424 634 c 2
 369 0 l 1
 165 0 l 1
 227 711 l 2
 243 891 242 1026 242 1026 c 1
 454 1026 l 1xd8
 443 881 l 1
 522 995 660 1051 787 1051 c 0
 1052 1051 1147 891 1119 567 c 2
 1081 124 l 2
 1052 -216 879 -398 539 -398 c 0
 441 -398 330 -383 203 -352 c 1xe8
EndSplineSet
EndChar

StartChar: equal
Encoding: 29 61 198
Width: 1330
VWidth: 0
Flags: HW
HStem: 274 167<195 1186> 666 167<229 1218>
LayerCount: 2
Fore
SplineSet
214 666 m 1
 229 833 l 1
 1233 833 l 1
 1218 666 l 1
 214 666 l 1
180 274 m 1
 195 441 l 1
 1200 441 l 1
 1186 274 l 1
 180 274 l 1
EndSplineSet
EndChar

StartChar: exclam
Encoding: 1 33 199
Width: 612
VWidth: 0
Flags: HW
HStem: 1436 20G<334.369 576>
LayerCount: 2
Fore
SplineSet
234 0 m 1
 425 0 l 1
 446 234 l 1
 255 234 l 1
 234 0 l 1
301 379 m 1
 335 1456 l 1
 576 1456 l 1
 421 379 l 1
 301 379 l 1
EndSplineSet
EndChar

StartChar: f
Encoding: 70 102 201
Width: 725
VWidth: 0
Flags: HW
HStem: 0 21G<239 444.751> 891 135<144 317 533 761> 1329 159<595.43 806>
LayerCount: 2
Fore
SplineSet
239 0 m 1
 317 891 l 1
 132 891 l 1
 144 1026 l 1
 329 1026 l 1
 338 1123 l 2
 365 1394 441 1487 785 1488 c 2
 824 1488 l 1
 806 1329 l 1
 596 1329 559 1310 541 1117 c 2
 533 1026 l 1
 773 1026 l 1
 761 891 l 1
 521 891 l 1
 443 0 l 1
 239 0 l 1
EndSplineSet
EndChar

StartChar: f_j
Encoding: 65536 -1 202
Width: 1253
VWidth: 0
Flags: HW
HStem: -390 149<606.466 834.905> 1334 148<569.457 777>
LayerCount: 2
Fore
SplineSet
428 0 m 1
 506 901 l 1
 981 901 l 1
 906 45 l 2
 889 -154 852 -241 718 -241 c 0
 688 -241 651 -239 610 -229 c 1
 582 -372 l 1
 641 -387 690 -390 738 -390 c 0
 980 -390 1071 -230 1092 8 c 2
 1182 1026 l 1
 517 1026 l 1
 526 1124 l 2
 542 1300 557 1332 755 1334 c 1
 799 1334 l 1
 812 1482 l 1
 777 1482 l 1
 415 1479 357 1373 334 1109 c 2
 327 1026 l 1
 143 1026 l 1
 132 901 l 1
 316 901 l 1
 238 0 l 1
 428 0 l 1
1198 1288 m 1
 1214 1462 l 1
 1036 1462 l 1
 1020 1288 l 1
 1198 1288 l 1
EndSplineSet
EndChar

StartChar: five
Encoding: 21 53 203
Width: 1237
VWidth: 0
Flags: HW
HStem: -23 180<440.648 796.128> 787 171<570.359 853.408> 1276 180<558 1159>
VStem: 952 217<322.632 678.919>
LayerCount: 2
Fore
SplineSet
1169 526 m 0
 1169 190 925 -23 619 -23 c 0
 457 -23 297 37 185 163 c 1
 304 313 l 1
 392 201 515 157 631 157 c 0
 820 157 952 302 952 510 c 0
 952 685 848 787 719 787 c 0
 632 787 547 752 496 662 c 1
 305 693 l 1
 382 1456 l 1
 1174 1456 l 1
 1159 1276 l 1
 558 1276 l 1
 497 855 l 1
 561 930 665 958 763 958 c 0
 1015 958 1169 773 1169 526 c 0
EndSplineSet
EndChar

StartChar: florin
Encoding: 318 402 204
Width: 1092
VWidth: 0
Flags: HW
HStem: -224 169<105.824 287.575> 828 155<392 525 778 935> 1302 176<868.021 1097.92>
LayerCount: 2
Fore
SplineSet
195 -224 m 0
 179 -224 134 -221 88 -208 c 1
 108 -42 l 1
 121 -47 159 -55 193 -55 c 0
 268 -55 330 7 361 143 c 1
 525 828 l 1
 372 828 l 1
 392 983 l 1
 562 983 l 1
 594 1135 l 2
 628 1294 697 1478 948 1478 c 0
 1035 1478 1091 1452 1113 1446 c 1
 1095 1282 l 1
 1077 1289 1022 1302 970 1302 c 0
 885 1302 841 1252 818 1152 c 1
 778 983 l 1
 956 983 l 1
 935 828 l 1
 738 828 l 1
 586 180 l 1
 527 -78 424 -224 195 -224 c 0
EndSplineSet
EndChar

StartChar: four
Encoding: 20 52 205
Width: 1237
VWidth: 0
Flags: HW
HStem: 0 21G<741 956.704> 399 153<350 776 1001 1194> 1436 20G<818.163 1081>
LayerCount: 2
Fore
SplineSet
741 0 m 1
 776 399 l 1
 140 399 l 1
 152 538 l 1
 833 1456 l 1
 1081 1456 l 1
 1001 552 l 1
 1209 552 l 1
 1194 399 l 1
 989 399 l 1
 955 0 l 1
 741 0 l 1
350 552 m 1
 792 552 l 1
 859 1240 l 1
 748 1082 l 1
 350 552 l 1
EndSplineSet
EndChar

StartChar: fraction
Encoding: 414 8260 206
Width: 1152
VWidth: 0
Flags: HW
HStem: 0 21G<34 245.038> 1436 20G<1042.95 1253>
LayerCount: 2
Fore
SplineSet
34 0 m 1
 1057 1456 l 1
 1253 1456 l 1
 231 0 l 1
 34 0 l 1
EndSplineSet
EndChar

StartChar: g
Encoding: 71 103 207
Width: 1238
VWidth: 0
Flags: W
HStem: -428 169<293.67 743.439> 26 159<457.609 786.331> 887 164<523.749 838.388> 1006 20G<981.867 1196>
VStem: 141 215<289.965 699.029>
LayerCount: 2
Fore
SplineSet
141 478 m 0xd8
 141 821 360 1051 676 1051 c 0xe8
 818 1051 936 965 968 876 c 1
 984 1026 l 1
 1196 1026 l 1
 1196 1026 1169 865 1157 730 c 2
 1105 150 l 2
 1075 -179 935 -428 526 -428 c 0
 367 -428 235 -390 154 -346 c 1
 197 -167 l 1
 262 -207 373 -259 527 -259 c 0
 750 -259 877 -169 895 37 c 1
 906 177 l 1
 857 87 739 26 582 26 c 0
 323 26 141 201 141 478 c 0xd8
613 185 m 0
 834 185 946 348 946 584 c 0
 946 764 857 887 687 887 c 0
 479 887 356 724 356 478 c 0
 356 298 437 185 613 185 c 0
EndSplineSet
EndChar

StartChar: germandbls
Encoding: 157 223 211
Width: 1284
VWidth: 0
Flags: HW
HStem: -23 164<690.113 933.129> 0 21G<189 404.5> 1334 162<609.524 873.184>
VStem: 916 229<1054.3 1290.53> 1001 229<211.715 486.229>
LayerCount: 2
Fore
SplineSet
1230 383 m 0x68
 1230 132 1014 -23 806 -23 c 0
 689 -23 567 30 483 150 c 1
 580 289 l 1
 658 187 746 141 815 141 c 0
 912 141 1001 217 1001 350 c 0xa8
 1001 517 826 626 636 740 c 1
 664 889 l 1
 790 942 916 1049 916 1185 c 0
 916 1278 847 1334 742 1334 c 0
 582 1334 492 1180 478 1020 c 0
 455 752 416 264 393 0 c 1
 189 0 l 1
 280 1052 l 1
 305 1317 480 1496 756 1496 c 0
 999 1496 1145 1365 1145 1201 c 0x70
 1145 1038 987 908 859 849 c 0
 834 837 811 827 791 818 c 1
 810 811 833 801 860 792 c 0
 1047 727 1230 601 1230 383 c 0x68
EndSplineSet
EndChar

StartChar: grave
Encoding: 64 96 212
Width: 600
VWidth: 0
Flags: HW
HStem: 1170 317
VStem: 103 488
LayerCount: 2
Fore
SplineSet
416 1170 m 1
 103 1487 l 1
 366 1487 l 1
 591 1170 l 1
 416 1170 l 1
EndSplineSet
EndChar

StartChar: greater
Encoding: 30 62 213
Width: 1329
VWidth: 0
Flags: HW
LayerCount: 2
Fore
SplineSet
211 43 m 1
 228 234 l 1
 962 556 l 1
 291 903 l 1
 308 1090 l 1
 1234 600 l 1
 1224 494 l 1
 211 43 l 1
EndSplineSet
EndChar

StartChar: greaterequal
Encoding: 431 8805 214
Width: 1350
VWidth: 0
Flags: HW
HStem: 4 152<204 1180>
LayerCount: 2
Fore
SplineSet
225 238 m 1
 241 417 l 1
 1012 701 l 1
 295 1018 l 1
 310 1192 l 1
 1236 748 l 1
 1228 652 l 1
 225 238 l 1
191 4 m 1
 204 156 l 1
 1193 156 l 1
 1180 4 l 1
 191 4 l 1
EndSplineSet
EndChar

StartChar: guillemotleft
Encoding: 106 171 215
Width: 1156
VWidth: 0
Flags: HW
LayerCount: 2
Fore
SplineSet
413 165 m 1
 174 541 l 1
 485 918 l 1
 674 918 l 1
 370 541 l 1
 598 165 l 1
 413 165 l 1
811 165 m 1
 571 541 l 1
 883 918 l 1
 1068 918 l 1
 768 541 l 1
 995 165 l 1
 811 165 l 1
EndSplineSet
EndChar

StartChar: guillemotright
Encoding: 121 187 216
Width: 1156
VWidth: 0
Flags: HW
LayerCount: 2
Fore
SplineSet
150 165 m 1
 451 542 l 1
 223 918 l 1
 407 918 l 1
 649 542 l 1
 337 165 l 1
 150 165 l 1
579 165 m 1
 876 543 l 1
 653 918 l 1
 834 918 l 1
 1074 542 l 1
 762 165 l 1
 579 165 l 1
EndSplineSet
EndChar

StartChar: guilsinglleft
Encoding: 412 8249 217
Width: 642
VWidth: 0
Flags: HW
VStem: 107 517
LayerCount: 2
Fore
SplineSet
347 165 m 1
 107 541 l 1
 417 918 l 1
 624 918 l 1
 324 541 l 1
 550 165 l 1
 347 165 l 1
EndSplineSet
EndChar

StartChar: guilsinglright
Encoding: 413 8250 218
Width: 642
VWidth: 0
Flags: HW
VStem: 108 516
LayerCount: 2
Fore
SplineSet
108 165 m 1
 405 543 l 1
 183 918 l 1
 381 918 l 1
 624 542 l 1
 310 165 l 1
 108 165 l 1
EndSplineSet
EndChar

StartChar: h
Encoding: 72 104 219
Width: 1211
VWidth: 0
Flags: HW
HStem: 0 21G<154 359.755 855 1061.75> 886 165<587.169 856.911> 1456 20G<281.252 487>
VStem: 911 205<450.12 830.201>
LayerCount: 2
Fore
SplineSet
154 0 m 1
 283 1476 l 1
 487 1476 l 1
 435 875 l 1
 513 995 652 1051 778 1051 c 0
 1032 1051 1116 869 1116 670 c 0
 1116 648 1115 627 1113 605 c 2
 1060 0 l 1
 855 0 l 1
 908 604 l 2
 910 626 911 647 911 666 c 0
 911 814 855 886 729 886 c 0
 566 886 425 767 411 604 c 2
 358 0 l 1
 154 0 l 1
EndSplineSet
EndChar

StartChar: hbar
Encoding: 229 295 220
Width: 1199
VWidth: 0
Flags: HW
HStem: 0 21<154 359.755 855 1061.75> 886 165<587.169 856.911> 1189 145<114 697> 1456 20<281.252 487>
VStem: 911 205<450.12 830.201>
LayerCount: 2
Fore
SplineSet
101 1189 m 1
 114 1334 l 1
 710 1334 l 1
 697 1189 l 1
 101 1189 l 1
EndSplineSet
Refer: 219 104 N 1 0 0 1 0 0 2
EndChar

StartChar: hungarumlaut
Encoding: 370 733 222
Width: 969
VWidth: 0
Flags: HW
HStem: 1147 338
LayerCount: 2
Fore
SplineSet
235 1147 m 1
 472 1485 l 1
 699 1485 l 1
 381 1147 l 1
 235 1147 l 1
571 1147 m 1
 831 1485 l 1
 1066 1485 l 1
 722 1147 l 1
 571 1147 l 1
EndSplineSet
EndChar

StartChar: hyphen
Encoding: 13 45 223
Width: 738
VWidth: 0
Flags: HW
HStem: 472 161<145 697>
VStem: 131 580
LayerCount: 2
Fore
SplineSet
131 472 m 1
 145 633 l 1
 711 633 l 1
 697 472 l 1
 131 472 l 1
EndSplineSet
EndChar

StartChar: i
Encoding: 73 105 224
Width: 557
VWidth: 0
Flags: HW
HStem: 0 21G<177 379.754> 1006 20G<265.246 468> 1272 184<309 487>
VStem: 177 327
AnchorPoint: "ogonek" 279 0 basechar 0
LayerCount: 2
Fore
SplineSet
177 0 m 1
 267 1026 l 1
 468 1026 l 1
 378 0 l 1
 177 0 l 1
292 1272 m 1
 309 1456 l 1
 504 1456 l 1
 487 1272 l 1
 292 1272 l 1
EndSplineSet
EndChar

StartChar: infinity
Encoding: 426 8734 232
Width: 1724
VWidth: 0
Flags: HW
HStem: 236 119<348.066 626.694 1143.84 1419.17> 829 115<371.208 659.882 1173.48 1453.64>
LayerCount: 2
Fore
SplineSet
469 236 m 0
 253 236 120 409 138 612 c 0
 154 797 337 944 526 944 c 0
 689 944 808 844 911 692 c 1
 1035 840 1165 944 1333 944 c 0
 1552 944 1679 798 1661 595 c 0
 1642 382 1462 236 1269 236 c 0
 1121 236 1008 320 891 488 c 1
 764 341 629 236 469 236 c 0
482 355 m 0
 611 355 728 460 831 589 c 1
 751 724 653 829 514 829 c 0
 371 829 277 720 266 592 c 0
 255 471 339 355 482 355 c 0
1282 355 m 0
 1432 355 1511 470 1524 618 c 0
 1534 732 1451 829 1319 829 c 0
 1187 829 1063 714 969 592 c 1
 1074 437 1159 355 1282 355 c 0
EndSplineSet
EndChar

StartChar: integral
Encoding: 427 8747 233
Width: 734
VWidth: 0
Flags: HW
HStem: -405 164<-7.81096 221.445> 1479 21G<842.5 865.687> 1503 165<633.38 865.35>
LayerCount: 2
Fore
SplineSet
130 -405 m 0
 76 -405 36 -396 -21 -382 c 1
 -7 -218 l 1
 33 -235 83 -241 116 -241 c 0
 228 -241 254 -173 265 -48 c 2
 382 1289 l 2
 401 1507 497 1668 725 1668 c 0
 773 1668 856 1651 878 1645 c 1
 864 1479 l 1
 821 1499 774 1503 741 1503 c 0
 627 1503 599 1436 588 1311 c 2
 472 -26 l 2
 453 -244 359 -405 130 -405 c 0
EndSplineSet
EndChar

StartChar: j
Encoding: 74 106 236
Width: 557
VWidth: 0
Flags: W
HStem: -389 156<-81.6047 146.581> 1006 20G<298.25 504> 1272 184<338 520>
VStem: -107 643
LayerCount: 2
Fore
SplineSet
49 -389 m 0
 1 -389 -48 -386 -107 -373 c 1
 -77 -222 l 1
 -39 -231 -5 -233 24 -233 c 0
 158 -233 197 -153 214 43 c 2
 300 1026 l 1
 504 1026 l 1
 415 10 l 2
 394 -226 307 -389 49 -389 c 0
321 1272 m 1
 338 1456 l 1
 536 1456 l 1
 520 1272 l 1
 321 1272 l 1
EndSplineSet
EndChar

StartChar: k
Encoding: 75 107 238
Width: 1093
VWidth: 0
Flags: W
HStem: 0 21G<154 359.728 797.922 1081> 1006 20G<840.726 1140> 1456 20G<282.238 487>
LayerCount: 2
Fore
SplineSet
154 0 m 1
 284 1476 l 1
 487 1476 l 1
 411 602 l 1
 862 1026 l 1
 1140 1026 l 1
 596 545 l 1
 1081 0 l 1
 815 0 l 1
 400 486 l 1
 358 0 l 1
 154 0 l 1
EndSplineSet
EndChar

StartChar: kgreenlandic
Encoding: 246 312 240
Width: 1093
VWidth: 0
Flags: HW
HStem: 0 21G<151 355.763 792.51 1083> 1006 20G<239.246 444 837.218 1136>
LayerCount: 2
Fore
SplineSet
151 0 m 1
 241 1026 l 1
 444 1026 l 1
 406 591 l 1
 858 1026 l 1
 1136 1026 l 1
 570 510 l 1
 647 434 1006 76 1083 0 c 1
 812 0 l 1
 392 431 l 1
 354 0 l 1
 151 0 l 1
EndSplineSet
EndChar

StartChar: l
Encoding: 76 108 241
Width: 524
VWidth: 0
Flags: W
HStem: 0 21G<168 372.748> 1456 20G<294.266 500>
VStem: 168 332
LayerCount: 2
Fore
SplineSet
168 0 m 1
 296 1476 l 1
 500 1476 l 1
 371 0 l 1
 168 0 l 1
EndSplineSet
EndChar

StartChar: less
Encoding: 28 60 246
Width: 1329
VWidth: 0
Flags: HW
LayerCount: 2
Fore
SplineSet
1109 38 m 1
 184 516 l 1
 192 617 l 1
 1206 1084 l 1
 1189 895 l 1
 448 564 l 1
 1126 224 l 1
 1109 38 l 1
EndSplineSet
EndChar

StartChar: lessequal
Encoding: 430 8804 247
Width: 1351
VWidth: 0
Flags: HW
HStem: 4 152<150 1131>
LayerCount: 2
Fore
SplineSet
1139 238 m 1
 209 651 l 1
 217 747 l 1
 1222 1191 l 1
 1207 1017 l 1
 436 703 l 1
 1155 416 l 1
 1139 238 l 1
136 4 m 1
 150 156 l 1
 1145 156 l 1
 1131 4 l 1
 136 4 l 1
EndSplineSet
EndChar

StartChar: logicalnot
Encoding: 107 172 248
Width: 1458
VWidth: 0
Flags: HW
HStem: 636 170<264 1116>
LayerCount: 2
Fore
SplineSet
1080 230 m 1
 1116 636 l 1
 249 636 l 1
 264 806 l 1
 1320 806 l 1
 1270 230 l 1
 1080 230 l 1
EndSplineSet
EndChar

StartChar: lozenge
Encoding: 432 9674 250
Width: 1248
VWidth: 0
Flags: HW
HStem: 1435 20G<664.213 822.2>
LayerCount: 2
Fore
SplineSet
625 159 m 1
 998 705 l 1
 728 1244 l 1
 355 706 l 1
 625 159 l 1
540 -42 m 1
 161 705 l 1
 678 1455 l 1
 812 1455 l 1
 1194 706 l 1
 672 -42 l 1
 540 -42 l 1
EndSplineSet
EndChar

StartChar: lslash
Encoding: 256 322 251
Width: 519
VWidth: 0
Flags: HW
HStem: 0 21<168 372.748> 1456 20<294.266 500>
VStem: 61 563 168 332
LayerCount: 2
Fore
SplineSet
61 607 m 1xe0
 77 782 l 1
 624 1121 l 1
 607 944 l 1
 61 607 l 1xe0
EndSplineSet
Refer: 241 108 N 1 0 0 1 0 0 2
EndChar

StartChar: m
Encoding: 77 109 252
Width: 1862
VWidth: 0
Flags: W
HStem: 0 21G<166 371.739 841 1046.75 1506 1711.79> 886 165<616.588 850.417 1260.66 1507.37> 1006 20G<243.5 457>
VStem: 244 213<899.707 1026> 1560 208<470.517 834.296>
LayerCount: 2
Fore
SplineSet
1457 1051 m 0xd8
 1662 1051 1768 918 1768 694 c 0
 1768 672 1768 649 1766 625 c 2
 1710 0 l 1
 1506 0 l 1
 1555 555 l 2
 1558 591 1560 627 1560 662 c 0
 1560 784 1529 886 1392 886 c 0
 1229 886 1111 750 1096 584 c 2
 1045 0 l 1
 841 0 l 1
 896 631 l 2
 898 648 898 665 898 682 c 0
 898 794 861 886 736 886 c 0xd8
 582 886 436 758 422 598 c 2
 370 0 l 1
 166 0 l 1
 230 730 l 2
 241 859 243 992 244 1026 c 1
 457 1026 l 1xb8
 436 841 l 1
 500 961 651 1051 794 1051 c 0
 931 1051 1036 976 1069 834 c 1
 1149 971 1303 1051 1457 1051 c 0xd8
EndSplineSet
EndChar

StartChar: macron
Encoding: 110 175 253
Width: 728
VWidth: 0
Flags: HW
HStem: 1190 155<183 767>
VStem: 170 610
LayerCount: 2
Fore
SplineSet
170 1190 m 1
 183 1345 l 1
 780 1345 l 1
 767 1190 l 1
 170 1190 l 1
EndSplineSet
EndChar

StartChar: middot
Encoding: -1 183 254
Width: 444
VWidth: 0
Flags: W
HStem: 513 210<146.813 382.187 165.187 363.813>
VStem: 147 235
LayerCount: 2
Fore
SplineSet
146.813 513 m 1
 165.187 723 l 1
 382.187 723 l 1
 363.813 513 l 1
 146.813 513 l 1
EndSplineSet
EndChar

StartChar: minus
Encoding: 422 8722 255
Width: 1350
VWidth: 0
Flags: HW
HStem: 396 168<214 1186>
LayerCount: 2
Fore
SplineSet
200 396 m 1
 214 564 l 1
 1201 564 l 1
 1186 396 l 1
 200 396 l 1
EndSplineSet
EndChar

StartChar: multiply
Encoding: 149 215 256
Width: 1243
VWidth: 0
Flags: HW
LayerCount: 2
Fore
SplineSet
365 136 m 1
 246 267 l 1
 554 551 l 1
 296 834 l 1
 438 965 l 1
 697 681 l 1
 1005 965 l 1
 1125 835 l 1
 815 551 l 1
 1075 267 l 1
 933 136 l 1
 674 420 l 1
 365 136 l 1
EndSplineSet
EndChar

StartChar: n
Encoding: 78 110 257
Width: 1225
VWidth: 0
Flags: W
HStem: 0 21G<167 372.712 869 1075.73> 886 165<611.771 873.314> 1006 20G<243.048 450>
VStem: 244 206<840 1026> 924 205<419.209 828.975>
LayerCount: 2
Fore
SplineSet
167 0 m 1xd8
 229 711 l 2
 245 891 244 1026 244 1026 c 1
 450 1026 l 1xb8
 436 840 l 1
 505 967 644 1051 804 1051 c 0
 1028 1051 1129 925 1129 672 c 0
 1129 639 1126 604 1123 567 c 2
 1074 0 l 1
 869 0 l 1
 918 565 l 2
 921 602 924 637 924 668 c 0
 924 808 883 886 736 886 c 0
 588 886 436 755 424 619 c 2
 371 0 l 1
 167 0 l 1xd8
EndSplineSet
EndChar

StartChar: nine
Encoding: 25 57 262
Width: 1237
VWidth: 0
Flags: HW
HStem: -24 182<369.639 726.72> 532 175<525.874 832.352> 1302 181<582.275 877.384>
VStem: 222 217<792.89 1147.61> 980 209<854.603 1196.43>
LayerCount: 2
Fore
SplineSet
222 943 m 0
 222 1255 436 1483 750 1483 c 0
 1037 1483 1189 1280 1189 909 c 0
 1189 333 919 -24 565 -24 c 0
 452 -24 329 10 200 77 c 1
 289 244 l 1
 383 187 476 158 564 158 c 0
 763 158 927 313 956 644 c 1
 959 690 l 1
 883 576 766 532 633 532 c 0
 374 532 222 698 222 943 c 0
735 1302 m 0
 554 1302 439 1159 439 959 c 0
 439 813 507 707 673 707 c 0
 842 707 980 827 980 1037 c 0
 980 1179 900 1302 735 1302 c 0
EndSplineSet
EndChar

StartChar: notequal
Encoding: 429 8800 263
Width: 1351
VWidth: 0
Flags: HW
HStem: 313 152<188 458 725 1212> 702 153<224 694 958 1246>
LayerCount: 2
Fore
SplineSet
478 41 m 1
 317 65 l 1
 458 313 l 1
 188 313 l 1
 177 465 l 1
 549 465 l 1
 694 702 l 1
 224 702 l 1
 211 855 l 1
 780 855 l 1
 935 1123 l 1
 1100 1099 l 1
 958 855 l 1
 1246 855 l 1
 1257 702 l 1
 872 702 l 1
 725 465 l 1
 1212 465 l 1
 1223 313 l 1
 637 313 l 1
 478 41 l 1
EndSplineSet
EndChar

StartChar: numbersign
Encoding: 3 35 265
Width: 1278
VWidth: 0
Flags: HW
HStem: 503 141<127 351 552 742 945 1174> 908 137<231 463 667 855 1058 1273>
LayerCount: 2
Fore
SplineSet
233 92 m 1
 351 503 l 1
 104 503 l 1
 127 644 l 1
 388 644 l 1
 398 686 452 866 463 908 c 1
 207 908 l 1
 231 1045 l 1
 496 1045 l 1
 611 1440 l 1
 775 1440 l 1
 667 1045 l 1
 893 1045 l 1
 1002 1440 l 1
 1168 1440 l 1
 1058 1045 l 1
 1298 1045 l 1
 1273 908 l 1
 1020 908 l 1
 945 644 l 1
 1197 644 l 1
 1174 503 l 1
 912 503 l 1
 795 92 l 1
 630 92 l 1
 742 503 l 1
 515 503 l 1
 402 92 l 1
 233 92 l 1
552 644 m 1
 780 644 l 1
 855 908 l 1
 628 908 l 1
 552 644 l 1
EndSplineSet
EndChar

StartChar: o
Encoding: 79 111 266
Width: 1252
VWidth: 0
Flags: W
HStem: -23 164<480.296 812.199> 887 164<539.608 864.88>
VStem: 140 214<272.298 679.704> 992 214<345.166 756.55>
AnchorPoint: "ogonek" 673 -2 basechar 0
LayerCount: 2
Fore
SplineSet
707 887 m 0
 489 887 354 709 354 462 c 0
 354 275 450 141 644 141 c 0
 865 141 992 322 992 566 c 0
 992 755 896 887 707 887 c 0
1206 575 m 0
 1206 228 974 -23 627 -23 c 0
 325 -23 140 176 140 453 c 0
 140 803 379 1051 726 1051 c 4
 1036 1051 1206 854 1206 575 c 0
EndSplineSet
EndChar

StartChar: oe
Encoding: 273 339 271
Width: 1985
VWidth: 0
Flags: HW
HStem: -30 171<470.804 785.506 1260.13 1639.8> 891 160<532.374 832.626 1317.69 1624.52>
LayerCount: 2
Fore
SplineSet
611 -30 m 0
 835 -30 966 89 1022 212 c 1
 1071 73 1226 -22 1404 -22 c 0
 1648 -22 1801 87 1832 110 c 1
 1786 268 l 1
 1747 238 1606 141 1428 141 c 0
 1254 141 1136 253 1136 431 c 0
 1136 434 1136 480 1136 484 c 1
 1892 484 l 1
 1896 513 l 1
 1924 837 1779 1051 1485 1051 c 0
 1299 1051 1143 950 1069 808 c 1
 1027 923 922 1054 707 1054 c 0
 368 1054 156 811 130 516 c 0
 104 219 293 -30 611 -30 c 0
631 141 m 0
 411 141 326 315 343 514 c 0
 360 715 483 886 687 886 c 0
 896 886 971 723 953 511 c 0
 936 315 832 141 631 141 c 0
1156 624 m 1
 1188 774 1320 891 1475 891 c 0
 1634 891 1716 784 1716 639 c 0
 1715 635 1716 628 1715 624 c 1
 1156 624 l 1
EndSplineSet
EndChar

StartChar: ogonek
Encoding: 368 731 272
Width: 508
VWidth: 0
Flags: HW
HStem: -474 112<263.845 416>
VStem: 92 138<-327.044 -131.885>
AnchorPoint: "ogonek" 355 0 mark 0
LayerCount: 2
Fore
SplineSet
330 21 m 1
 439 21 l 1
 301 -57 230 -160 230 -239 c 0
 230 -310 287 -362 403 -362 c 0
 419 -362 438 -361 458 -358 c 1
 416 -471 l 1
 401 -473 385 -474 370 -474 c 0
 175 -474 92 -381 92 -273 c 0
 92 -160 182 -32 330 21 c 1
EndSplineSet
EndChar

StartChar: one
Encoding: 17 49 276
Width: 1237
VWidth: 0
Flags: HW
HStem: 0 170<326 578 793 1020> 1451 20G<736.524 905.249>
LayerCount: 2
Fore
SplineSet
311 0 m 1
 326 170 l 1
 578 170 l 1
 670 1228 l 1
 588 1186 501 1148 389 1106 c 1
 406 1297 l 1
 513 1335 634 1398 728 1450 c 1
 907 1471 l 1
 793 169 l 1
 1035 169 l 1
 1020 0 l 1
 311 0 l 1
EndSplineSet
EndChar

StartChar: onehalf
Encoding: 123 189 277
Width: 2253
VWidth: 0
Flags: HW
HStem: 0 130<1611 1961> 595 131<315 453 610 737> 699 144<1594.7 1842.87>
VStem: 1856 166<489.853 683.226>
LayerCount: 2
Fore
SplineSet
304 595 m 1xd0
 315 726 l 1
 453 726 l 1
 498 1254 l 1
 456 1234 394 1210 345 1193 c 1
 358 1331 l 1
 440 1357 525 1403 570 1428 c 1
 671 1428 l 1
 610 724 l 1
 748 724 l 1
 737 595 l 1
 304 595 l 1xd0
1394 0 m 1
 1407 119 l 1
 1760 393 1856 512 1856 610 c 0
 1856 668 1811 699 1741 699 c 0
 1665 699 1582 658 1518 597 c 1
 1455 714 l 1
 1535 796 1649 843 1763 843 c 0xb0
 1909 843 2022 770 2022 626 c 0
 2022 436 1813 282 1611 130 c 1
 1975 130 l 1
 1961 0 l 1
 1394 0 l 1
541 0 m 1
 1562 1430 l 1
 1759 1430 l 1
 738 0 l 1
 541 0 l 1
EndSplineSet
EndChar

StartChar: onequarter
Encoding: 122 188 278
Width: 2101
VWidth: 0
Flags: HW
HStem: 0 21G<529 740.266 1652 1811.77> 181 109<1462 1669 1840 1944> 595 131<315 453 610 737>
LayerCount: 2
Fore
SplineSet
1652 0 m 1
 1669 181 l 1
 1304 181 l 1
 1313 293 l 1
 1721 805 l 1
 1882 805 l 1
 1840 290 l 1
 1951 290 l 1
 1944 181 l 1
 1826 181 l 1
 1810 0 l 1
 1652 0 l 1
1462 290 m 1
 1678 290 l 1
 1715 614 l 1
 1462 290 l 1
529 0 m 1
 1550 1430 l 1
 1746 1430 l 1
 726 0 l 1
 529 0 l 1
304 595 m 1
 315 726 l 1
 453 726 l 1
 498 1254 l 1
 456 1234 394 1210 345 1193 c 1
 358 1331 l 1
 440 1357 525 1403 570 1428 c 1
 671 1428 l 1
 610 724 l 1
 748 724 l 1
 737 595 l 1
 304 595 l 1
EndSplineSet
EndChar

StartChar: ordfeminine
Encoding: 105 170 279
Width: 828
VWidth: 0
Flags: HW
HStem: 757 112<367.923 567.821> 1107 82<438.279 670> 1354 125<341.501 664.974>
VStem: 203 157<877.864 1045.67> 661 153<806 922 955.162 1106.88> 682 163<984.234 1106.88 1191 1331.98>
LayerCount: 2
Fore
SplineSet
595 1189 m 0xf4
 347 1187 203 1085 203 934 c 0
 203 817 290 757 415 757 c 0
 528 757 609 804 661 922 c 1
 661 783 l 1
 814 783 l 1
 814 791 814 799 814 806 c 0xf8
 814 926 830 1072 843 1222 c 0
 844 1234 845 1244 845 1255 c 0
 845 1423 725 1479 580 1479 c 0
 438 1479 324 1439 281 1415 c 1
 322 1302 l 1
 362 1317 461 1354 556 1354 c 0
 639 1354 682 1323 682 1241 c 0
 682 1233 682 1224 681 1214 c 0
 681 1210 678 1195 678 1191 c 1
 665 1191 606 1189 595 1189 c 0xf4
455 869 m 0
 391 869 360 897 360 946 c 0
 360 1074 483 1100 670 1107 c 1
 669 1105 668 1070 668 1069 c 0
 651 963 558 869 455 869 c 0
EndSplineSet
EndChar

StartChar: ordmasculine
Encoding: 120 186 280
Width: 882
VWidth: 0
Flags: HW
HStem: 759 139<409.868 649.965> 1340 138<446.983 680.721>
VStem: 173 183<951.108 1248.04> 739 181<989.779 1283.11>
LayerCount: 2
Fore
SplineSet
567 1340 m 0
 439 1340 356 1226 356 1091 c 0
 356 982 410 898 529 898 c 0
 659 898 739 1010 739 1143 c 0
 739 1254 682 1340 567 1340 c 0
920 1156 m 0
 920 934 765 759 519 759 c 0
 289 759 173 895 173 1080 c 0
 173 1309 331 1478 580 1478 c 0
 803 1478 920 1338 920 1156 c 0
EndSplineSet
EndChar

StartChar: oslash
Encoding: 182 248 281
Width: 1256
VWidth: 0
Flags: HW
HStem: -23 164<480.296 812.199> 887 164<539.608 864.88>
VStem: 140 214<272.298 679.704> 992 214<345.166 756.55>
LayerCount: 2
Fore
SplineSet
355 -222 m 1
 263 -176 l 1
 1023 1254 l 1
 1117 1208 l 1
 355 -222 l 1
EndSplineSet
Refer: 266 111 N 1 0 0 1 0 0 2
EndChar

StartChar: p
Encoding: 80 112 283
Width: 1256
VWidth: 0
Flags: HW
HStem: -412 21G<135 337.748> -23 164<523.872 822.71> 886 165<604.738 884.355> 1006 20G<246.5 461>
VStem: 248 161<454 1026> 997 214<336.114 765.032>
LayerCount: 2
Fore
SplineSet
1211 591 m 0xec
 1211 245 1001 -23 697 -23 c 0
 540 -23 410 72 386 160 c 1
 336 -412 l 1
 135 -412 l 1
 234 721 l 2
 241 802 245 922 248 1026 c 1
 461 1026 l 1xdc
 448 858 l 1
 495 963 639 1051 800 1051 c 0
 1059 1051 1211 858 1211 591 c 0xec
742 886 m 0xec
 539 886 409 708 409 454 c 0
 409 272 498 141 674 141 c 0
 880 141 997 327 997 573 c 0
 997 757 913 886 742 886 c 0xec
EndSplineSet
EndChar

StartChar: paragraph
Encoding: 116 182 284
Width: 1214
VWidth: 0
Flags: HW
HStem: 1300 156<741.84 923 1067 1178>
LayerCount: 2
Fore
SplineSet
208 1102 m 0
 208 1383 474 1456 755 1456 c 2
 1191 1456 l 1
 1178 1300 l 1
 1067 1300 l 1
 942 -123 l 1
 799 -123 l 1
 923 1300 l 1
 740 1300 l 1
 617 -123 l 1
 462 -123 l 1
 541 780 l 1
 377 790 208 915 208 1102 c 0
EndSplineSet
EndChar

StartChar: parenleft
Encoding: 8 40 285
Width: 636
VWidth: 0
Flags: W
VStem: 187 203<228.881 889.462>
LayerCount: 2
Fore
SplineSet
400 -181 m 1
 278 34 187 294 187 558 c 0
 187 934 337 1220 543 1506 c 1
 735 1506 l 1
 525 1214 390 914 390 558 c 0
 390 313 467 45 588 -181 c 1
 400 -181 l 1
EndSplineSet
EndChar

StartChar: parenright
Encoding: 9 41 286
Width: 634
VWidth: 0
Flags: W
VStem: 386 202<427.667 1097.69>
LayerCount: 2
Fore
SplineSet
46 -181 m 1
 236 87 386 398 386 769 c 0
 386 1002 318 1272 189 1506 c 1
 379 1506 l 1
 501 1289 588 1028 588 765 c 0
 588 384 439 97 242 -181 c 1
 46 -181 l 1
EndSplineSet
EndChar

StartChar: partialdiff
Encoding: 418 8706 287
Width: 1167
VWidth: 0
Flags: HW
HStem: -24 167<395.733 652.516> 840 162<538.149 831.328> 1351 164<516.711 830.3>
LayerCount: 2
Fore
SplineSet
496 -24 m 0
 891 -24 1117 411 1155 838 c 0
 1196 1305 1027 1515 721 1515 c 0
 604 1515 483 1477 393 1418 c 1
 390 1239 l 1
 486 1300 600 1351 687 1351 c 0
 867 1351 968 1195 951 940 c 0
 950 923 949 901 947 887 c 1
 863 973 776 1002 680 1002 c 0
 397 1002 145 749 116 424 c 0
 94 171 220 -24 496 -24 c 0
513 143 m 0
 382 143 310 253 324 420 c 0
 343 645 502 840 684 840 c 0
 799 840 887 770 916 694 c 1
 864 345 693 143 513 143 c 0
EndSplineSet
EndChar

StartChar: percent
Encoding: 5 37 288
Width: 1850
VWidth: 0
Flags: HW
HStem: -24 133<1289.92 1508.05> 602 133<1328.13 1544.56> 715 134<438.425 656.461> 1341 133<476.075 692.947>
VStem: 213 176<898.202 1244.77> 743 175<945.257 1291.58> 1065 175<158.917 505.545> 1594 175<203.696 556.189>
LayerCount: 2
Fore
SplineSet
743 1139 m 0xbf
 743 986 680 849 544 849 c 0
 433 849 389 935 389 1050 c 0
 389 1198 447 1341 588 1341 c 0
 701 1341 743 1250 743 1139 c 0xbf
600 1474 m 0
 365 1474 213 1288 213 1047 c 0
 213 856 325 715 532 715 c 0
 765 715 918 898 918 1141 c 0
 918 1332 809 1474 600 1474 c 0
402 0 m 1
 574 0 l 1
 1571 1456 l 1
 1398 1456 l 1
 402 0 l 1
1594 401 m 0
 1594 248 1533 109 1396 109 c 0
 1285 109 1240 196 1240 311 c 0
 1240 459 1299 602 1440 602 c 0xdf
 1553 602 1594 512 1594 401 c 0
1452 735 m 0
 1218 735 1065 548 1065 308 c 0
 1065 117 1177 -24 1383 -24 c 0
 1616 -24 1769 159 1769 402 c 0
 1769 592 1660 735 1452 735 c 0
EndSplineSet
EndChar

StartChar: period
Encoding: 14 46 289
Width: 542
VWidth: 0
Flags: HW
HStem: 0 239<165 396>
VStem: 145 271
LayerCount: 2
Fore
SplineSet
145 0 m 1
 165 239 l 1
 416 239 l 1
 396 0 l 1
 145 0 l 1
EndSplineSet
EndChar

StartChar: periodcentered
Encoding: 117 183 290
Width: 444
VWidth: 0
Flags: HW
HStem: 532 239<178 409>
VStem: 158 272
LayerCount: 2
Fore
SplineSet
158 532 m 1
 178 771 l 1
 430 771 l 1
 409 532 l 1
 158 532 l 1
EndSplineSet
EndChar

StartChar: perthousand
Encoding: 411 8240 291
Width: 2478
VWidth: 0
Flags: HW
HStem: -24 133<1135.45 1356.49 1943.15 2164.04> 577 133<1168.98 1392.6 1976.65 2199.88> 694 134<374.847 595.988> 1296 133<407.699 630.944>
LayerCount: 2
Fore
SplineSet
484 828 m 0xb0
 601 828 667 933 678 1061 c 0
 689 1186 645 1296 523 1296 c 0
 401 1296 338 1186 327 1063 c 0
 315 933 364 828 484 828 c 0xb0
470 694 m 0
 250 694 131 848 150 1063 c 0
 168 1269 312 1429 534 1429 c 0
 756 1429 873 1274 854 1061 c 0
 836 852 690 694 470 694 c 0
273 -9 m 1
 1321 1424 l 1
 1495 1424 l 1
 449 -9 l 1
 273 -9 l 1
1243 109 m 0
 1361 109 1428 215 1439 343 c 0
 1450 468 1407 577 1284 577 c 0xd0
 1162 577 1098 466 1087 343 c 0
 1075 212 1125 109 1243 109 c 0
1231 -24 m 0
 1011 -24 892 128 911 343 c 0
 929 549 1074 710 1296 710 c 0
 1518 710 1633 554 1614 342 c 0
 1596 133 1451 -24 1231 -24 c 0
2051 109 m 0
 2169 109 2236 215 2247 343 c 0
 2258 468 2213 577 2091 577 c 0
 1969 577 1906 466 1895 343 c 0
 1883 212 1933 109 2051 109 c 0
2038 -24 m 0
 1819 -24 1700 128 1719 343 c 0
 1737 549 1882 710 2104 710 c 0
 2325 710 2441 556 2422 342 c 0
 2404 133 2258 -24 2038 -24 c 0
EndSplineSet
EndChar

StartChar: pi
Encoding: 375 960 292
Width: 1288
VWidth: 0
Flags: HW
HStem: -8 155<998.735 1145.99> 907 133<101.35 345 507.786 885 1044 1248>
VStem: 345 169<651.466 907>
LayerCount: 2
Fore
SplineSet
1015 -8 m 0
 859 -8 812 73 830 279 c 2
 885 907 l 1
 514 907 l 1
 514 907 404 169 296 0 c 1
 127 0 l 1
 242 177 311 616 345 907 c 1
 225 904 140 885 63 846 c 1
 57 977 l 1
 129 1029 235 1040 415 1040 c 2
 1260 1040 l 1
 1248 907 l 1
 1044 907 l 1
 990 288 l 2
 985 228 979 147 1076 147 c 0
 1097 147 1124 151 1157 160 c 1
 1154 140 1151 120 1149 100 c 0
 1146 69 1146 38 1153 6 c 1
 1100 -3 1054 -8 1015 -8 c 0
EndSplineSet
EndChar

StartChar: plus
Encoding: 11 43 293
Width: 1223
VWidth: 0
Flags: HW
HStem: 508 171<191 567 773 1151>
LayerCount: 2
Fore
SplineSet
531 100 m 1
 567 508 l 1
 176 508 l 1
 191 679 l 1
 584 679 l 1
 621 1088 l 1
 809 1088 l 1
 773 679 l 1
 1166 679 l 1
 1151 508 l 1
 757 508 l 1
 721 100 l 1
 531 100 l 1
EndSplineSet
EndChar

StartChar: plusminus
Encoding: 112 177 294
Width: 1243
VWidth: 0
Flags: HW
HStem: 0 137<195 1078> 574 168<242 582 783 1123>
LayerCount: 2
Fore
SplineSet
553 237 m 1
 582 574 l 1
 227 574 l 1
 242 742 l 1
 593 742 l 1
 622 1082 l 1
 813 1082 l 1
 783 742 l 1
 1138 742 l 1
 1123 574 l 1
 775 574 l 1
 746 237 l 1
 553 237 l 1
182 0 m 1
 195 137 l 1
 1092 137 l 1
 1078 0 l 1
 182 0 l 1
EndSplineSet
EndChar

StartChar: product
Encoding: 420 8719 295
Width: 1568
VWidth: 0
Flags: HW
HStem: 1285 171<196 355 576 1219 1445 1600>
LayerCount: 2
Fore
SplineSet
218 -270 m 1
 355 1285 l 1
 178 1285 l 1
 196 1456 l 1
 1616 1456 l 1
 1600 1285 l 1
 1445 1285 l 1
 1309 -270 l 1
 1082 -270 l 1
 1219 1285 l 1
 576 1285 l 1
 440 -270 l 1
 218 -270 l 1
EndSplineSet
EndChar

StartChar: q
Encoding: 81 113 296
Width: 1245
VWidth: 0
Flags: HW
HStem: -412 21G<849 1052.77> -22 163<465.251 759.074> 886 165<530.956 832.174> 1006 20G<976.088 1186>
VStem: 140 214<264.048 680.977>
LayerCount: 2
Fore
SplineSet
140 453 m 0xd8
 140 799 355 1051 674 1051 c 0xe8
 842 1051 930 950 965 890 c 1
 978 1026 l 1
 1186 1026 l 1
 1179 975 1165 875 1156 774 c 2
 1051 -412 l 1
 849 -412 l 1
 900 158 l 1
 871 84 753 -22 578 -22 c 0
 295 -22 140 183 140 453 c 0xd8
682 886 m 0
 477 886 354 703 354 456 c 0
 354 272 438 141 612 141 c 0
 817 141 940 332 940 581 c 0
 940 762 853 886 682 886 c 0
EndSplineSet
EndChar

StartChar: question
Encoding: 31 63 297
Width: 1049
VWidth: 0
Flags: HW
HStem: 1304 177<380.703 757.313>
VStem: 819 210<1005.69 1248.44>
LayerCount: 2
Fore
SplineSet
386 382 m 1
 571 382 l 1
 572 393 578 468 580 478 c 1
 607 787 1029 832 1029 1165 c 0
 1029 1377 860 1481 634 1481 c 0
 537 1481 424 1460 313 1411 c 1
 298 1229 l 1
 394 1275 499 1304 592 1304 c 0
 718 1304 819 1256 819 1139 c 0
 819 898 419 797 396 537 c 0
 394 513 386 382 386 382 c 1
355 0 m 1
 546 0 l 1
 567 234 l 1
 376 234 l 1
 355 0 l 1
EndSplineSet
EndChar

StartChar: quotedbl
Encoding: 2 34 299
Width: 764
VWidth: 0
Flags: HW
HStem: 912 544<242 339 563 660>
VStem: 230 109<912 982.259> 551 109<912 981.632>
LayerCount: 2
Fore
SplineSet
230 912 m 1
 242 1456 l 1
 450 1456 l 1
 339 912 l 1
 230 912 l 1
551 912 m 1
 563 1456 l 1
 772 1456 l 1
 660 912 l 1
 551 912 l 1
EndSplineSet
EndChar

StartChar: quotedblbase
Encoding: 406 8222 300
Width: 1024
VWidth: 0
Flags: HW
HStem: -230 460<279 307 626 650>
LayerCount: 2
Fore
SplineSet
131 -230 m 1
 279 230 l 1
 504 230 l 1
 307 -230 l 1
 131 -230 l 1
478 -230 m 1
 626 230 l 1
 851 230 l 1
 650 -230 l 1
 478 -230 l 1
EndSplineSet
EndChar

StartChar: quotedblleft
Encoding: 404 8220 301
Width: 1024
VWidth: 0
Flags: HW
HStem: 990 460<416 441 789 814>
LayerCount: 2
Fore
SplineSet
216 990 m 1
 416 1450 l 1
 591 1450 l 1
 441 990 l 1
 216 990 l 1
599 990 m 1
 789 1450 l 1
 963 1450 l 1
 814 990 l 1
 599 990 l 1
EndSplineSet
EndChar

StartChar: quotedblright
Encoding: 405 8221 302
Width: 1024
VWidth: 0
Flags: HW
HStem: 990 460<382 408 731 754>
LayerCount: 2
Fore
SplineSet
236 990 m 1
 382 1450 l 1
 609 1450 l 1
 408 990 l 1
 236 990 l 1
583 990 m 1
 731 1450 l 1
 956 1450 l 1
 754 990 l 1
 583 990 l 1
EndSplineSet
EndChar

StartChar: quoteleft
Encoding: 401 8216 303
Width: 595
VWidth: 0
Flags: HW
HStem: 996 460<405 430>
VStem: 241 373
LayerCount: 2
Fore
SplineSet
241 996 m 1
 405 1456 l 1
 614 1456 l 1
 430 996 l 1
 241 996 l 1
EndSplineSet
EndChar

StartChar: quoteright
Encoding: 402 8217 304
Width: 508
VWidth: 0
Flags: HW
HStem: 997 459<333 357>
VStem: 185 372
LayerCount: 2
Fore
SplineSet
185 997 m 1
 333 1456 l 1
 557 1456 l 1
 357 997 l 1
 185 997 l 1
EndSplineSet
EndChar

StartChar: quotesinglbase
Encoding: 403 8218 305
Width: 553
VWidth: 0
Flags: HW
HStem: -230 460<238 260>
VStem: 86 376
LayerCount: 2
Fore
SplineSet
86 -230 m 1
 238 230 l 1
 462 230 l 1
 260 -230 l 1
 86 -230 l 1
EndSplineSet
EndChar

StartChar: quotesingle
Encoding: 7 39 306
Width: 554
VWidth: 0
Flags: HW
HStem: 974 482<281 439>
VStem: 277 162<974 1074.14> 281 227<1355.86 1456>
LayerCount: 2
Fore
SplineSet
277 974 m 1xc0
 281 1456 l 1
 508 1456 l 1xa0
 439 974 l 1
 277 974 l 1xc0
EndSplineSet
EndChar

StartChar: r
Encoding: 82 114 307
Width: 808
VWidth: 0
Flags: W
HStem: 0 21G<167 373.742> 876 175<573.42 818.472> 1006 20G<243.289 457>
VStem: 244 213<860 1026>
LayerCount: 2
Fore
SplineSet
167 0 m 1xd0
 235 773 l 2
 241 836 244 1026 244 1026 c 1
 457 1026 l 1xb0
 444 860 l 1
 509 988 615 1051 728 1051 c 0
 762 1051 799 1047 832 1038 c 1
 817 854 l 1
 794 862 750 876 700 876 c 0
 554 876 439 768 422 574 c 2
 372 0 l 1
 167 0 l 1xd0
EndSplineSet
EndChar

StartChar: radical
Encoding: 425 8730 309
Width: 1314
VWidth: 0
Flags: HW
HStem: 635 144<127.108 197.319>
LayerCount: 2
Fore
SplineSet
546 -148 m 1
 298 664 l 1
 296 664 129 635 129 635 c 1
 110 779 l 1
 445 834 l 1
 640 146 l 1
 1148 1576 l 1
 1325 1576 l 1
 714 -148 l 1
 546 -148 l 1
EndSplineSet
EndChar

StartChar: registered
Encoding: 109 174 312
Width: 1829
VWidth: 0
Flags: HW
HStem: -27 113<673.678 1155.79> 658 145<820 959.633> 1057 147<843 1159.97> 1367 117<781.339 1263.07>
VStem: 174 137<439.24 912.365> 1181 188<840.791 1032.03> 1626 135<543.445 1015.98>
LayerCount: 2
Fore
SplineSet
931 803 m 2
 1091 803 1181 817 1181 947 c 0
 1181 1045 1115 1057 946 1057 c 2
 843 1057 l 1
 820 803 l 1
 931 803 l 2
1369 962 m 0
 1369 825 1286 712 1099 683 c 1
 1168 626 1226 521 1346 281 c 1
 1127 281 l 1
 1066 438 965 630 920 658 c 1
 809 658 l 1
 775 281 l 1
 592 281 l 1
 673 1204 l 1
 961 1204 l 2
 1237 1204 1369 1118 1369 962 c 0
1024 1367 m 0
 632 1367 311 1068 311 669 c 0
 311 339 556 86 914 86 c 0
 1304 86 1626 388 1626 786 c 0
 1626 1117 1381 1367 1024 1367 c 0
1032 1484 m 0
 1458 1484 1761 1177 1761 793 c 0
 1761 332 1363 -27 905 -27 c 0
 477 -27 174 277 174 663 c 0
 174 1125 575 1484 1032 1484 c 0
EndSplineSet
EndChar

StartChar: ring
Encoding: 367 730 313
Width: 605
VWidth: 0
Flags: HW
HStem: 1121 98<341.31 509.448> 1427 97<354.169 519.782>
VStem: 210 443
LayerCount: 2
Fore
SplineSet
423 1219 m 0
 484 1219 528 1267 533 1321 c 0
 538 1376 503 1427 440 1427 c 0
 379 1427 333 1377 328 1323 c 0
 323 1268 356 1219 423 1219 c 0
415 1121 m 0
 275 1121 201 1216 210 1321 c 0
 220 1428 313 1524 449 1524 c 0
 586 1524 662 1426 653 1321 c 0
 644 1216 551 1121 415 1121 c 0
EndSplineSet
EndChar

StartChar: s
Encoding: 83 115 314
Width: 995
VWidth: 0
Flags: HW
HStem: -23 161<309.52 674.049> 889 162<429.928 815.747>
VStem: 184 205<683.483 847.204> 731 204<190.22 372.006>
LayerCount: 2
Fore
SplineSet
935 316 m 0
 935 62 704 -23 519 -23 c 0
 293 -23 154 71 126 96 c 1
 189 247 l 1
 225 221 365 138 512 138 c 0
 621 138 731 177 731 293 c 0
 731 376 647 400 505 446 c 0
 340 498 184 557 184 732 c 0
 184 963 387 1051 584 1051 c 0
 775 1051 894 988 938 962 c 1
 871 820 l 1
 847 833 725 889 600 889 c 0
 481 889 389 850 389 758 c 0
 389 677 480 651 625 601 c 0
 789 547 935 499 935 316 c 0
EndSplineSet
EndChar

StartChar: section
Encoding: 102 167 320
Width: 1079
VWidth: 0
Flags: HW
HStem: -34 151<274.583 655.641> 1330 157<552.109 957.737>
VStem: 239 200<667.399 846.419> 314 195<1126.64 1286.28> 721 205<179.976 345.688> 781 207<624.524 801.134>
LayerCount: 2
Fore
SplineSet
546 899 m 1xe4
 491 864 439 815 439 743 c 0
 439 664 552 625 681 567 c 1
 725 599 781 655 781 724 c 0
 781 817 639 850 546 899 c 1xe4
926 298 m 0xc8
 926 72 715 -34 495 -34 c 0
 398 -34 295 -16 204 22 c 1
 219 184 l 1
 308 144 413 117 502 117 c 0
 621 117 721 180 721 272 c 0
 721 349 620 382 441 460 c 1
 299 530 239 599 239 705 c 0xe8
 239 830 325 913 428 970 c 1
 356 1023 314 1082 314 1175 c 0
 314 1393 505 1487 718 1487 c 0
 807 1487 888 1471 971 1443 c 1
 955 1285 l 1
 897 1306 795 1330 716 1330 c 0
 616 1330 509 1297 509 1207 c 0
 509 1140 587 1093 729 1026 c 1
 863 959 988 890 988 760 c 0xd4
 988 643 898 560 802 497 c 1
 877 453 926 393 926 298 c 0xc8
EndSplineSet
EndChar

StartChar: semicolon
Encoding: 27 59 321
Width: 542
VWidth: 0
Flags: HW
HStem: 862 238<250 462>
VStem: 47 436
LayerCount: 2
Fore
SplineSet
47 -247 m 1
 196 236 l 1
 428 236 l 1
 216 -247 l 1
 47 -247 l 1
229 862 m 1
 250 1100 l 1
 483 1100 l 1
 462 862 l 1
 229 862 l 1
EndSplineSet
EndChar

StartChar: seven
Encoding: 23 55 322
Width: 1240
VWidth: 0
Flags: HW
HStem: 0 21G<326 564.039> 1282 174<276 965>
LayerCount: 2
Fore
SplineSet
326 0 m 1
 965 1282 l 1
 260 1282 l 1
 276 1456 l 1
 1218 1456 l 1
 1205 1297 l 1
 554 0 l 1
 326 0 l 1
EndSplineSet
EndChar

StartChar: six
Encoding: 22 54 323
Width: 1237
VWidth: 0
Flags: HW
HStem: -23 180<534.416 834.357> 775 172<591.824 888.021> 1302 181<685.966 1033.06>
VStem: 205 223<273.876 770.94> 982 218<317.905 676.004>
LayerCount: 2
Fore
SplineSet
1200 526 m 0
 1200 209 984 -23 670 -23 c 0
 353 -23 205 211 205 568 c 0
 205 1062 439 1483 854 1483 c 0
 1000 1483 1117 1437 1194 1363 c 1
 1109 1208 l 1
 1038 1269 946 1302 839 1302 c 0
 606 1302 467 1054 438 773 c 1
 519 880 633 947 787 947 c 0
 1035 947 1200 785 1200 526 c 0
742 775 m 0
 555 775 428 641 428 446 c 0
 428 265 529 157 685 157 c 0
 864 157 982 309 982 509 c 0
 982 662 905 775 742 775 c 0
EndSplineSet
EndChar

StartChar: slash
Encoding: 15 47 324
Width: 965
VWidth: 0
Flags: HW
HStem: 0 21G<125 322.258> 1436 20G<789.742 987>
LayerCount: 2
Fore
SplineSet
125 0 m 1
 799 1456 l 1
 987 1456 l 1
 313 0 l 1
 125 0 l 1
EndSplineSet
EndChar

StartChar: sterling
Encoding: 98 163 326
Width: 1243
VWidth: 0
Flags: HW
HStem: 0 169<452 1064> 696 130<240 424 644 953> 1298 170<781.764 1141.05>
LayerCount: 2
Fore
SplineSet
197 0 m 1
 209 161 l 1
 300 225 390 318 411 555 c 2
 424 696 l 1
 229 696 l 1
 240 826 l 1
 433 826 l 1
 441 912 l 1
 468 1221 570 1468 943 1468 c 0
 1079 1468 1176 1435 1241 1390 c 1
 1174 1236 l 1
 1112 1272 1039 1298 939 1298 c 0
 751 1298 672 1185 653 959 c 0
 651 940 644 848 644 826 c 1
 965 826 l 1
 953 696 l 1
 638 696 l 1
 637 689 627 563 625 553 c 0
 609 409 516 233 452 169 c 1
 1078 169 l 1
 1064 0 l 1
 197 0 l 1
EndSplineSet
EndChar

StartChar: summation
Encoding: 421 8721 327
Width: 1264
VWidth: 0
Flags: HW
HStem: -270 179<375 1229> 1284 172<517 1321>
LayerCount: 2
Fore
SplineSet
58 -270 m 1
 68 -158 l 1
 749 600 l 1
 221 1345 l 1
 232 1456 l 1
 1337 1456 l 1
 1321 1284 l 1
 517 1284 l 1
 998 606 l 1
 375 -91 l 1
 1244 -91 l 1
 1229 -270 l 1
 58 -270 l 1
EndSplineSet
EndChar

StartChar: t
Encoding: 84 116 328
Width: 776
VWidth: 0
Flags: W
HStem: 0 157<474.984 713> 891 135<136 290 506 775>
VStem: 240 204<194.301 494.416>
AnchorPoint: "bot" 481 0 basechar 0
LayerCount: 2
Fore
SplineSet
713 0 m 1
 653 0 l 2
 384 0 240 39 240 287 c 0
 240 308 241 330 243 355 c 2
 290 891 l 1
 124 891 l 1
 136 1026 l 1
 308 1026 l 1
 331 1283 l 1
 534 1342 l 1
 506 1026 l 1
 787 1026 l 1
 775 891 l 1
 494 891 l 1
 446 335 l 2
 445 321 444 308 444 296 c 0
 444 174 514 157 727 157 c 1
 713 0 l 1
EndSplineSet
EndChar

StartChar: tbar
Encoding: 293 359 329
Width: 778
VWidth: 0
Flags: HW
HStem: 0 157<474.984 713> 557 155<106 714> 891 135<136 290 506 775>
VStem: 240 204<194.301 494.416>
LayerCount: 2
Fore
SplineSet
92 557 m 1
 106 712 l 1
 727 712 l 1
 714 557 l 1
 92 557 l 1
EndSplineSet
Refer: 328 116 N 1 0 0 1 0 0 2
EndChar

StartChar: thorn
Encoding: 188 254 332
Width: 1233
VWidth: 0
Flags: HW
HStem: -412 21G<115 312.801> -23 164<498.191 797.237> 885 166<566.992 868.909> 1439 20G<277.247 480>
VStem: 968 216<342.07 778.596>
LayerCount: 2
Fore
SplineSet
1184 588 m 0
 1184 266 974 -23 680 -23 c 0
 532 -23 418 32 360 132 c 1
 311 -412 l 1
 115 -412 l 1
 279 1459 l 1
 480 1459 l 1
 427 889 l 1
 497 986 612 1051 758 1051 c 0
 1039 1051 1184 844 1184 588 c 0
646 141 m 0
 864 141 968 351 968 582 c 0
 968 745 905 885 718 885 c 0
 489 885 389 675 389 444 c 0
 389 267 475 141 646 141 c 0
EndSplineSet
EndChar

StartChar: three
Encoding: 19 51 333
Width: 1237
VWidth: 0
Flags: HW
HStem: -23 180<428.501 804.535> 671 176<510 833.011> 1303 180<517.614 890.676>
VStem: 944 216<290.157 572.652> 960 223<960.975 1237.42>
LayerCount: 2
Fore
SplineSet
1183 1135 m 0xe8
 1183 946 1065 811 867 770 c 1
 1049 734 1160 609 1160 442 c 0
 1160 148 894 -23 612 -23 c 0
 387 -23 214 56 156 201 c 1
 281 341 l 1
 343 224 471 157 627 157 c 0
 803 157 944 262 944 443 c 0xf0
 944 607 811 671 596 671 c 0
 573 671 532 670 498 668 c 1
 510 848 l 1
 538 847 583 847 596 847 c 0
 813 847 960 914 960 1125 c 0
 960 1246 863 1303 726 1303 c 0
 568 1303 446 1244 358 1129 c 1
 247 1263 l 1
 357 1414 539 1483 754 1483 c 0
 979 1483 1183 1362 1183 1135 c 0xe8
EndSplineSet
EndChar

StartChar: threequarters
Encoding: 124 190 334
Width: 2244
VWidth: 0
Flags: W
HStem: 0 21G<629 840.266 1658 1817.77> 181 109<1468 1675 1846 1950> 572 115.384<395.301 692.827> 962 122<476 694.968> 1310.34 122.663<435.576 716.621>
VStem: 735 145<728.635 920.997 1119.59 1290.73>
LayerCount: 2
UndoRedoHistory
Layer: 1
Undoes
EndUndoes
Redoes
EndRedoes
EndUndoRedoHistory
Fore
SplineSet
1658 0 m 1
 1675 181 l 1
 1310 181 l 1
 1319 293 l 1
 1727 805 l 1
 1888 805 l 1
 1846 290 l 1
 1957 290 l 1
 1950 181 l 1
 1832 181 l 1
 1816 0 l 1
 1658 0 l 1
1468 290 m 1
 1684 290 l 1
 1721 614 l 1
 1468 290 l 1
893 1220 m 0
 893 1128 834.941176471 1066 752 1027 c 1
 829.714285714 987 880 917 880 830 c 0
 880 658 721 572 559 572 c 0
 460 572 361 605 284 667 c 1
 348 762 l 1
 404.890635658 718.309453536 486.43919413 687.383789062 557.876953125 687.383789062 c 0
 654.446466131 687.383789062 735 727.408451967 735 835 c 0
 735 914.644067797 659.402234637 962 536 962 c 2
 463 962 l 1
 476 1084 l 1
 544 1084 l 2
 651.770949721 1084 735 1120 735 1203 c 0
 735 1282.35659514 678.905912213 1310.33698662 609.48693704 1310.33698662 c 0
 529.027251785 1310.33698662 430.667122247 1272.74856848 381 1234 c 1
 338 1334 l 1
 419 1391 528 1433 635 1433 c 0
 770 1433 893 1357 893 1220 c 0
629 0 m 1
 1649 1430 l 1
 1846 1430 l 1
 826 0 l 1
 629 0 l 1
EndSplineSet
EndChar

StartChar: tilde
Encoding: 369 732 335
Width: 663
VWidth: 0
Flags: HW
HStem: 1177 156<478.832 655.988> 1266 155<259.265 448.87>
VStem: 112 130<1172 1253.6>
LayerCount: 2
Fore
SplineSet
112 1172 m 1x60
 135 1314 214 1421 334 1421 c 0x60
 439 1421 528 1333 595 1333 c 0
 638 1333 660 1369 673 1431 c 1
 807 1431 l 1
 782 1296 711 1177 587 1177 c 0xa0
 499 1177 393 1266 324 1266 c 0
 284 1266 254 1238 242 1172 c 1
 112 1172 l 1x60
EndSplineSet
EndChar

StartChar: trademark
Encoding: 417 8482 336
Width: 1869
VWidth: 0
Flags: HW
HStem: 1302 134<211 448 605 857>
LayerCount: 2
Fore
SplineSet
871 663 m 1
 939 1436 l 1
 1158 1436 l 1
 1326 934 l 1
 1593 1436 l 1
 1802 1436 l 1
 1735 663 l 1
 1580 663 l 1
 1624 1163 l 1
 1348 663 l 1
 1238 663 l 1
 1067 1157 l 1
 1023 663 l 1
 871 663 l 1
392 663 m 1
 448 1302 l 1
 200 1302 l 1
 211 1436 l 1
 870 1436 l 1
 857 1302 l 1
 605 1302 l 1
 549 663 l 1
 392 663 l 1
EndSplineSet
EndChar

StartChar: two
Encoding: 18 50 337
Width: 1237
VWidth: 0
Flags: HW
HStem: 0 174<456 1076> 1303 179<534.747 887.192>
VStem: 956 212<925.894 1235.56>
LayerCount: 2
Fore
SplineSet
168 0 m 1
 183 164 l 1
 682 651 l 2
 850 813 956 934 956 1103 c 0
 956 1239 866 1303 728 1303 c 0
 583 1303 445 1238 360 1107 c 1
 247 1228 l 1
 343 1392 530 1482 746 1482 c 0
 997 1482 1168 1360 1168 1121 c 0
 1168 883 1010 707 810 514 c 2
 456 174 l 1
 1092 174 l 1
 1076 0 l 1
 168 0 l 1
EndSplineSet
EndChar

StartChar: u
Encoding: 85 117 338
Width: 1212
VWidth: 0
Flags: HW
HStem: -23 164<455.591 712.968> 0 21G<851 1061.5> 1006 20G<236.245 441 935.212 1141>
VStem: 180 204<214.579 545.696> 851 210<0 182>
AnchorPoint: "ogonek" 959 0 basechar 0
LayerCount: 2
Fore
SplineSet
531 -23 m 0xb8
 293 -23 180 138 180 340 c 0
 180 356 181 372 182 388 c 2
 238 1026 l 1
 441 1026 l 1
 386 388 l 2
 385 376 384 364 384 353 c 0
 384 210 468 141 602 141 c 0xb8
 769 141 868 251 883 422 c 2
 937 1026 l 1
 1141 1026 l 1
 1074 260 l 2
 1068 188 1062 38 1061 0 c 1
 851 0 l 1x78
 863 182 l 1
 835 114 734 -23 531 -23 c 0xb8
EndSplineSet
EndChar

StartChar: underscore
Encoding: 63 95 346
Width: 961
VWidth: 0
Flags: HW
HStem: -215 160<-1 962>
LayerCount: 2
Fore
SplineSet
-15 -215 m 1
 -1 -55 l 1
 976 -55 l 1
 962 -215 l 1
 -15 -215 l 1
EndSplineSet
EndChar

StartChar: uni007F
Encoding: 440 127 348
Width: 1521
VWidth: 0
Flags: HW
HStem: 0 124<372 1173> 1330 126<478 1279>
LayerCount: 2
Fore
SplineSet
189 0 m 1
 317 1456 l 1
 1462 1456 l 1
 1334 0 l 1
 189 0 l 1
478 1330 m 1
 372 124 l 1
 1173 124 l 1
 1279 1330 l 1
 478 1330 l 1
EndSplineSet
EndChar

StartChar: uni00AD
Encoding: 108 173 350
Width: 728
VWidth: 0
Flags: HW
HStem: 1217 154<186 770>
VStem: 173 609
LayerCount: 2
Fore
SplineSet
173 1217 m 1
 186 1371 l 1
 782 1371 l 1
 770 1217 l 1
 173 1217 l 1
EndSplineSet
EndChar

StartChar: uni00B2
Encoding: 113 178 351
Width: 946
VWidth: 0
Flags: HW
HStem: 638 139<483 816> 1344 135<462.135 705.855>
VStem: 722 152<1139.26 1325.62>
LayerCount: 2
Fore
SplineSet
256 638 m 1
 267 767 l 1
 569 1010 722 1143 722 1250 c 0
 722 1309 675 1344 601 1344 c 0
 523 1344 444 1300 387 1232 c 1
 319 1335 l 1
 390 1426 502 1479 621 1479 c 0
 766 1479 874 1403 874 1265 c 0
 874 1075 692 937 483 777 c 1
 828 777 l 1
 816 638 l 1
 256 638 l 1
EndSplineSet
EndChar

StartChar: uni00B3
Encoding: 114 179 352
Width: 943
VWidth: 0
Flags: W
HStem: 620 125<382.041 661.928> 1001 123<455 674.682> 1355 124<432.658 692.289>
VStem: 702 149<786.439 970.215 1155.52 1342.3>
LayerCount: 2
Fore
SplineSet
851 893 m 0
 851 715 700 620 536 620 c 0
 438 620 337 652 267 715 c 1
 334 823 l 1
 399 768 479 745 538 745 c 0
 630.051612903 745 702 796.176470588 702 890 c 0
 702 970.91588785 627.841269841 1001 510 1001 c 2
 443 1001 l 1
 455 1124 l 1
 517 1124 l 2
 626.142857143 1124 708 1153.51694915 708 1253 c 0
 708 1322.13333333 664.612612613 1355 596 1355 c 0
 525 1355 443 1324 374 1277 c 1
 322 1379 l 1
 398 1437 510 1479 613 1479 c 0
 746 1479 863 1406 863 1273 c 0
 863 1184 821 1100 703 1068 c 1
 803 1038 851 974 851 893 c 0
EndSplineSet
EndChar

StartChar: uni00B9
Encoding: 119 185 353
Width: 913
VWidth: 0
Flags: HW
HStem: 646 120<335 480 625 758> 1456 20G<566 686.233>
VStem: 324 444
LayerCount: 2
Fore
SplineSet
324 646 m 1
 335 766 l 1
 480 766 l 1
 526 1303 l 1
 483 1282 408 1258 357 1240 c 1
 372 1380 l 1
 451 1405 520 1433 566 1459 c 1
 688 1476 l 1
 625 763 l 1
 768 763 l 1
 758 646 l 1
 324 646 l 1
EndSplineSet
EndChar

StartChar: uni02C9
Encoding: 364 713 394
Width: 728
VWidth: 0
Flags: HW
HStem: 1188 147<184 760>
VStem: 172 600
LayerCount: 2
Fore
SplineSet
172 1188 m 1
 184 1335 l 1
 772 1335 l 1
 760 1188 l 1
 172 1188 l 1
EndSplineSet
EndChar

StartChar: uni0311
Encoding: 373 785 395
Width: 629
VWidth: 0
Flags: W
HStem: 1348.86 118.111<331.598 562.739>
VStem: 152 126<1218 1295.34> 605 111<1218 1303.47>
LayerCount: 2
Fore
SplineSet
152 1218 m 1
 178.213514514 1381.46795628 324.059857086 1466.96822918 460.864819608 1466.96822918 c 0
 593.763701756 1466.96822918 718.130135355 1386.28069307 716 1218 c 1
 605 1218 l 1
 592.490303503 1306.77306693 522.779340339 1348.85733153 450.473261563 1348.85733153 c 0
 375.426375377 1348.85733153 297.583905841 1303.52213765 278 1218 c 1
 152 1218 l 1
EndSplineSet
EndChar

StartChar: afii00208
Encoding: 400 8213 411
Width: 2220
VWidth: 0
Flags: HW
HStem: 472 161<100 2120>
LayerCount: 2
Fore
SplineSet
86 472 m 1
 100 633 l 1
 2134 633 l 5
 2120 472 l 5
 86 472 l 1
EndSplineSet
EndChar

StartChar: uni2074
Encoding: 415 8308 412
Width: 897
VWidth: 0
Flags: HW
HStem: 838 115<356 571 726 835> 1436 20G<603.125 771>
VStem: 202 636
LayerCount: 2
Fore
SplineSet
555 655 m 1
 571 838 l 1
 202 838 l 1
 211 942 l 1
 619 1456 l 1
 771 1456 l 1
 726 953 l 1
 838 953 l 1
 835 838 l 1
 716 838 l 1
 700 655 l 1
 555 655 l 1
356 953 m 1
 579 953 l 1
 607 1274 l 1
 356 953 l 1
EndSplineSet
EndChar

StartChar: Delta
Encoding: 419 8710 413
Width: 1314
VWidth: 0
Flags: HW
HStem: 0 108<301 1125>
LayerCount: 2
Fore
SplineSet
128 0 m 1
 135 80 l 1
 775 1429 l 1
 882 1429 l 1
 1283 80 l 1
 1276 0 l 1
 128 0 l 1
301 108 m 1
 1125 108 l 1
 837 1131 l 1
 812 1228 l 1
 771 1131 l 1
 301 108 l 1
EndSplineSet
EndChar

StartChar: uniFB00
Encoding: 433 64256 416
Width: 1430
VWidth: 0
Flags: HW
HStem: 0 21G<237 428.754 921 1112.75> 901 125<143 316 517 1000 1201 1452> 1341 148<578.738 797 1262.74 1481>
LayerCount: 2
Fore
SplineSet
921 0 m 1
 1000 901 l 1
 506 901 l 1
 427 0 l 1
 237 0 l 1
 316 901 l 1
 132 901 l 1
 143 1026 l 1
 327 1026 l 1
 336 1129 l 1
 361 1393 436 1488 778 1489 c 1
 812 1489 l 1
 797 1341 l 1
 577 1341 543 1315 526 1133 c 1
 517 1026 l 1
 1011 1026 l 1
 1020 1129 l 1
 1045 1393 1120 1488 1462 1489 c 1
 1496 1489 l 1
 1481 1341 l 1
 1261 1341 1227 1315 1210 1133 c 1
 1201 1026 l 1
 1463 1026 l 1
 1452 901 l 1
 1190 901 l 1
 1111 0 l 1
 921 0 l 1
EndSplineSet
EndChar

StartChar: uniFB01
Encoding: 434 64257 417
Width: 1214
VWidth: 0
Flags: HW
HStem: 1334 148<569.457 777>
LayerCount: 2
Fore
SplineSet
1126 1288 m 1
 1142 1462 l 1
 964 1462 l 1
 948 1288 l 1
 1126 1288 l 1
428 0 m 1
 506 901 l 1
 904 901 l 1
 826 0 l 1
 1016 0 l 1
 1106 1026 l 1
 517 1026 l 1
 526 1124 l 2
 542 1300 557 1332 755 1334 c 1
 799 1334 l 1
 812 1482 l 1
 777 1482 l 1
 415 1479 357 1373 334 1109 c 2
 327 1026 l 1
 143 1026 l 1
 132 901 l 1
 316 901 l 1
 238 0 l 1
 428 0 l 1
EndSplineSet
EndChar

StartChar: uniFB02
Encoding: 435 64258 418
Width: 1277
VWidth: 0
Flags: HW
HStem: 0 21G<250 441.754 918 1108.75> 901 125<143 329 530 762> 1317 148<603.891 1033>
LayerCount: 2
Fore
SplineSet
519 901 m 1
 440 0 l 1
 250 0 l 1
 329 901 l 1
 132 901 l 1
 143 1026 l 1
 340 1026 l 1
 345 1092 l 1
 368 1357 462 1465 834 1465 c 2
 1235 1465 l 1
 1107 0 l 1
 918 0 l 1
 1033 1317 l 1
 837 1317 l 2
 597 1317 551 1272 538 1124 c 2
 530 1026 l 1
 773 1026 l 1
 762 901 l 1
 519 901 l 1
EndSplineSet
EndChar

StartChar: v
Encoding: 86 118 424
Width: 1091
VWidth: 0
Flags: HW
HStem: 0 21G<441.372 653.175> 1006 20G<108 337.902 935.59 1165>
LayerCount: 2
Fore
SplineSet
448 0 m 1
 108 1026 l 1
 332 1026 l 1
 512 416 l 1
 570 215 l 1
 658 416 l 1
 945 1026 l 1
 1165 1026 l 1
 643 0 l 1
 448 0 l 1
EndSplineSet
EndChar

StartChar: w
Encoding: 87 119 425
Width: 1642
VWidth: 0
Flags: HW
HStem: 0 21G<364.951 561.704 1078.2 1273.67> 1006 20G<111 331.387 827.407 1027.65 1505.19 1710>
LayerCount: 2
Fore
SplineSet
370 0 m 1
 111 1026 l 1
 327 1026 l 1
 470 374 l 1
 499 240 l 1
 552 365 l 1
 836 1026 l 1
 1023 1026 l 1
 1178 360 l 1
 1206 239 l 1
 1252 358 l 1
 1513 1026 l 1
 1710 1026 l 1
 1265 0 l 1
 1083 0 l 1
 928 646 l 1
 895 782 l 1
 835 648 l 1
 553 0 l 1
 370 0 l 1
EndSplineSet
EndChar

StartChar: x
Encoding: 88 120 430
Width: 1037
VWidth: 0
Flags: W
HStem: 0 21G<44 274.16 778.733 1009> 1006 20G<150 381.749 863.88 1090>
LayerCount: 2
Fore
SplineSet
44 0 m 1
 459 508 l 1
 150 1026 l 1
 370 1026 l 1
 585 660 l 1
 880 1026 l 1
 1090 1026 l 1
 686 528 l 1
 1009 0 l 1
 791 0 l 1
 561 375 l 1
 258 0 l 1
 44 0 l 1
EndSplineSet
EndChar

StartChar: y
Encoding: 89 121 431
Width: 1082
VWidth: 0
Flags: HW
HStem: -438 140<166.061 219.378> 1006 20G<135 350.957 925.214 1146>
LayerCount: 2
Fore
SplineSet
172 -438 m 1
 114 -298 l 1
 302 -242 403 -130 443 -42 c 2
 469 13 l 1
 135 1026 l 1
 345 1026 l 1
 583 227 l 1
 934 1026 l 1
 1146 1026 l 1
 630 -69 l 2
 535 -271 378 -398 172 -438 c 1
EndSplineSet
EndChar

StartChar: yen
Encoding: 100 165 435
Width: 1243
VWidth: 0
Flags: HW
HStem: 0 21<518 730.744> 264 117<202 586 715 1086> 575 122<227 598 727 1110> 1436 20<140 381.472 1115.3 1368>
VStem: 586 129<381 575>
LayerCount: 2
Fore
SplineSet
1086 264 m 1
 189 264 l 1
 202 381 l 1
 586 381 l 1
 598 575 l 1
 214 575 l 1
 227 697 l 1
 1124 697 l 1
 1110 575 l 1
 727 575 l 1
 715 381 l 1
 1100 381 l 1
 1086 264 l 1
EndSplineSet
Refer: 117 89 N 1 0 0 1 -2 0 2
EndChar

StartChar: z
Encoding: 90 122 437
Width: 966
VWidth: 0
Flags: HW
HStem: 0 164<404 915> 862 164<212 700>
LayerCount: 2
Fore
SplineSet
126 0 m 1
 136 109 l 1
 700 862 l 1
 197 862 l 1
 212 1026 l 1
 978 1026 l 1
 968 919 l 1
 404 164 l 1
 917 164 l 1
 915 0 l 1
 126 0 l 1
EndSplineSet
EndChar

StartChar: zero
Encoding: 16 48 441
Width: 1240
VWidth: 0
Flags: HW
HStem: -23 180<517.539 771.673> 1302 181<612.599 865.391>
VStem: 184 216<298.439 959.29> 975 218<502.75 1166.1>
LayerCount: 2
Fore
SplineSet
644 157 m 0
 883 157 975 523 975 889 c 0
 975 1127 916 1302 744 1302 c 0
 495 1302 400 934 400 579 c 0
 400 329 465 157 644 157 c 0
625 -23 m 0
 331 -23 184 224 184 596 c 0
 184 1118 394 1483 759 1483 c 0
 1053 1483 1193 1255 1193 885 c 0
 1193 378 997 -23 625 -23 c 0
EndSplineSet
EndChar

StartChar: eth
Encoding: 174 240 442
Width: 1220
Flags: W
HStem: -22 160<399.035 693.074> 753 155<435.122 742.986> 1046 21G<457.745 502.637> 1416 137<401.481 451.85>
VStem: 74.1613 214.311<252.82 604.853> 904.61 192.961<478.677 979.174>
LayerCount: 2
Fore
SplineSet
74.1613049192 412.15316802 m 0
 74.1613049192 710.146002194 311.025445612 908 601.466796875 908 c 0
 755.466796875 908 865.943359375 822 902.681640625 739 c 1
 903.975790469 753.786158325 904.609624566 768.408271419 904.609624566 782.865883949 c 0
 904.609624566 938.471969151 831.186038988 1075.02224569 717.355671127 1191.94901209 c 1
 468.541015625 1046 l 1
 409.1640625 1156 l 1
 617.745013316 1278.67292766 l 1
 531.72335931 1342.07471894 430.625799451 1390.72645088 320.911132812 1416 c 1
 410.897460938 1553 l 1
 535.149846686 1526.81865186 665.316663662 1465.46501292 778.500713491 1373.2183418 c 1
 1019.57226562 1515 l 1
 1078.86132812 1404 l 1
 873.646132331 1283.62543833 l 1
 1005.88521782 1139.71512856 1097.57026789 945.182417037 1097.57026789 709.5831818 c 0
 1097.57026789 247.770178841 861.420016896 -22 522.102539062 -22 c 0
 240.373920763 -22 74.1613049192 169.372334645 74.1613049192 412.15316802 c 0
597.59375 753 m 0
 427.534810516 753 288.472115648 631.86066443 288.472115648 422.480028135 c 0
 288.472115648 243.734825057 399.512369869 138 542.850585938 138 c 0
 716.531796868 138 855.423510105 283.055663845 855.423510105 495.965306439 c 0
 855.423510105 652.984328834 729.649678023 753 597.59375 753 c 0
EndSplineSet
EndChar

StartChar: acutecomb
Encoding: 441 769 444
Width: 0
VWidth: 0
Flags: W
HStem: 1154 377
VStem: -271.5 543
LayerCount: 2
UndoRedoHistory
Layer: 0
Undoes
EndUndoes
Redoes
EndRedoes
EndUndoRedoHistory
UndoRedoHistory
Layer: 1
Undoes
EndUndoes
Redoes
EndRedoes
EndUndoRedoHistory
Fore
SplineSet
-271.5 1154 m 1
 6.5 1531 l 1
 271.5 1532 l 1
 -92.5 1154 l 1
 -271.5 1154 l 1
EndSplineSet
EndChar

StartChar: caroncomb
Encoding: 442 780 445
Width: 0
VWidth: 0
Flags: W
HStem: 1139 373
LayerCount: 2
UndoRedoHistory
Layer: 0
Undoes
EndUndoes
Redoes
EndRedoes
EndUndoRedoHistory
UndoRedoHistory
Layer: 1
Undoes
EndUndoes
Redoes
EndRedoes
EndUndoRedoHistory
Fore
SplineSet
-119 1139 m 5
 -342 1512 l 5
 -158 1512 l 5
 -22 1278 l 5
 154 1512 l 5
 342 1512 l 5
 55 1139 l 5
 -119 1139 l 5
EndSplineSet
EndChar

StartChar: circumflexcomb
Encoding: 443 770 446
Width: 0
VWidth: 0
Flags: W
HStem: 1139 366
VStem: -337 674
LayerCount: 2
UndoRedoHistory
Layer: 0
Undoes
EndUndoes
Redoes
EndRedoes
EndUndoRedoHistory
UndoRedoHistory
Layer: 1
Undoes
EndUndoes
Redoes
EndRedoes
EndUndoRedoHistory
Fore
SplineSet
-63 1505 m 5
 125 1505 l 5
 337 1139 l 5
 157 1139 l 5
 18 1365 l 5
 -161 1139 l 5
 -337 1139 l 5
 -63 1505 l 5
EndSplineSet
EndChar

StartChar: gravecomb
Encoding: 444 768 447
Width: 0
VWidth: 0
Flags: W
HStem: 1153 379
VStem: -242.5 485
LayerCount: 2
UndoRedoHistory
Layer: 0
Undoes
EndUndoes
Redoes
EndRedoes
EndUndoRedoHistory
UndoRedoHistory
Layer: 1
Undoes
EndUndoes
Redoes
EndRedoes
EndUndoRedoHistory
Fore
SplineSet
64.5 1153 m 5
 -242.5 1532 l 5
 23.5 1532 l 5
 242.5 1153 l 5
 64.5 1153 l 5
EndSplineSet
EndChar

StartChar: uni02BC
Encoding: 447 700 453
Width: 525
VWidth: 0
Flags: W
HStem: -272 520<210 218>
VStem: 49 383
LayerCount: 2
UndoRedoHistory
Layer: 1
Undoes
EndUndoes
Redoes
EndRedoes
EndUndoRedoHistory
Fore
SplineSet
49 -272 m 1
 210 248 l 1
 432 248 l 1
 218 -272 l 1
 49 -272 l 1
EndSplineSet
EndChar

StartChar: uni018F
Encoding: 445 399 454
Width: 1489
VWidth: 0
Flags: W
HStem: -22 180<496.03 852.165> 642 179<282 1145> 1299 184<483.34 938.469>
VStem: 77.9606 203.972<391.325 642> 1163.06 225.197<821 1055.1>
LayerCount: 2
UndoRedoHistory
Layer: 1
Undoes
EndUndoes
Redoes
EndRedoes
EndUndoRedoHistory
Fore
SplineSet
1388.25896866 835.425592972 m 0
 1388.25896866 322.998952458 1057.31790218 -22 680 -22 c 0
 372.142752269 -22 77.9605972848 148.938659345 77.9605972848 661.490697594 c 0
 77.9605972848 710.881369883 81.3640704828 770.276634345 87 821 c 1
 1163 821 l 1
 1163.04160436 824.441960953 1163.06232947 827.864032935 1163.06232947 831.26625732 c 0
 1163.06232947 1154.96668659 975.451732767 1299 733 1299 c 0
 586 1299 419 1247.04605263 261 1150 c 1
 205 1321 l 1
 394 1429 588 1483 764 1483 c 0
 1114.02912431 1483 1388.25896866 1266.06190484 1388.25896866 835.425592972 c 0
282 642 m 1
 281.954876013 638.344957027 281.932404464 634.710784839 281.932404464 631.097477695 c 0
 281.932404464 314.410442756 454.549505284 158 678 158 c 0
 913 158 1091 367 1145 642 c 1
 282 642 l 1
EndSplineSet
EndChar

StartChar: uni0259
Encoding: 446 601 455
Width: 1168
VWidth: 0
Flags: W
HStem: -22 162<388.627 681.33> 419 140<284 840> 885 166<337.052 724.894>
VStem: 108.532 175.468<251.842 419> 857.894 210.873<559 752.587>
LayerCount: 2
UndoRedoHistory
Layer: 1
Undoes
EndUndoes
Redoes
EndRedoes
EndUndoRedoHistory
Fore
SplineSet
108.532002276 435.57141111 m 0
 108.532002276 485.444585969 110.11459343 509.572967149 120 559 c 1
 857 559 l 1
 857.598817581 569.087773088 857.894219204 578.937905706 857.894219204 588.550886533 c 0
 857.894219204 787.630427114 731.201987855 885 549 885 c 3
 431 885 321 849 218 772 c 1
 172 924 l 1
 291 1009.328125 425 1051 577 1051 c 3
 886.11246413 1051 1068.76729512 865.586618915 1068.76729512 580.929810275 c 0
 1068.76729512 235.731686417 840.526546327 -22 525 -22 c 3
 241.490241863 -22 108.532002276 169.534987487 108.532002276 435.57141111 c 0
840 419 m 1
 284 419 l 1
 288 235 385 140 532 140 c 3
 680 140 798 243 840 419 c 1
EndSplineSet
EndChar
